<svg id="Group_59" data-name="Group 59" xmlns="http://www.w3.org/2000/svg" xmlns:xlink="http://www.w3.org/1999/xlink" width="965.055" height="965.055" viewBox="0 0 965.055 965.055">
  <defs>
    <clipPath id="clip-path">
      <rect id="Rectangle_28" data-name="Rectangle 28" width="965.027" height="965.027" fill="#fff"/>
    </clipPath>
    <clipPath id="clip-path-2">
      <rect id="Rectangle_29" data-name="Rectangle 29" width="965.055" height="965.055" fill="#fff"/>
    </clipPath>
  </defs>
  <g id="Group_48" data-name="Group 48" transform="translate(0 0.027)">
    <g id="Group_47" data-name="Group 47" clip-path="url(#clip-path)">
      <path id="Path_27" data-name="Path 27" d="M679.942,75.525c-.134,32.142-2.324,64.977-4.44,96.732-2.12,31.789-4.311,64.659-4.445,96.872-.151,36.159,2.365,67.629,7.693,96.207,6.4,34.318,16.871,65.292,32.015,94.69a345.391,345.391,0,0,0,28.924,46.483,403.685,403.685,0,0,0,39.542,45.757l1.605-1.607a401.563,401.563,0,0,1-39.32-45.493,343.371,343.371,0,0,1-28.733-46.179c-15.042-29.2-25.444-59.969-31.8-94.067-5.3-28.436-7.805-59.767-7.655-95.781.134-32.142,2.323-64.977,4.44-96.731,2.119-31.789,4.311-64.66,4.446-96.873A552.326,552.326,0,0,0,677.811,0h-2.29a549.494,549.494,0,0,1,4.42,75.525" transform="translate(-366.438 -0.027)" fill="#fff"/>
    </g>
  </g>
  <g id="Group_50" data-name="Group 50">
    <g id="Group_49" data-name="Group 49" clip-path="url(#clip-path-2)">
      <path id="Path_28" data-name="Path 28" d="M0,2122.43v1.612l.8-.8-.8-.812" transform="translate(0 -1158.987)" fill="#fff"/>
      <path id="Path_29" data-name="Path 29" d="M35.268,2000.045A406.826,406.826,0,0,1,0,1959.94v3.709a410.411,410.411,0,0,0,33.664,38Z" transform="translate(0 -1070.256)" fill="#fff"/>
      <path id="Path_30" data-name="Path 30" d="M68.13,1859.7l1.6-1.607a401.547,401.547,0,0,1-39.32-45.493,343.412,343.412,0,0,1-28.733-46.179c-.568-1.1-1.127-2.211-1.682-3.314v5a346,346,0,0,0,28.588,45.838A403.636,403.636,0,0,0,68.13,1859.7" transform="translate(0 -962.774)" fill="#fff"/>
      <path id="Path_31" data-name="Path 31" d="M5.577,749.021c.129-30.977-1.7-58.51-5.577-83.734v17.19a568.851,568.851,0,0,1,3.308,66.535C3.2,775.393,1.7,802.24,0,828.573v34.481q.557-8.62,1.132-17.159c2.119-31.789,4.311-64.661,4.445-96.874" transform="translate(0 -363.291)" fill="#fff"/>
      <path id="Path_32" data-name="Path 32" d="M34.13,1547.186a345.383,345.383,0,0,0,28.924,46.483,403.667,403.667,0,0,0,39.542,45.757l1.605-1.607a401.548,401.548,0,0,1-39.32-45.493,343.36,343.36,0,0,1-28.733-46.179c-15.042-29.2-25.444-59.969-31.8-94.064-1.754-9.41-3.2-19.138-4.347-29.242v17.186q.972,6.333,2.115,12.47c6.4,34.322,16.871,65.294,32.015,94.691" transform="translate(0 -776.964)" fill="#fff"/>
      <path id="Path_33" data-name="Path 33" d="M37.774,543.4c-.134,32.142-2.323,64.977-4.44,96.731-2.119,31.79-4.311,64.66-4.445,96.871-.151,36.16,2.365,67.632,7.694,96.207C42.98,867.529,53.453,898.5,68.6,927.9A345.475,345.475,0,0,0,97.52,974.385a404,404,0,0,0,39.542,45.752l1.6-1.607a401.557,401.557,0,0,1-39.319-45.493,343.134,343.134,0,0,1-28.734-46.179c-15.042-29.2-25.444-59.965-31.8-94.064-5.3-28.439-7.806-59.769-7.655-95.785.134-32.138,2.323-64.976,4.44-96.729,2.119-31.789,4.311-64.66,4.445-96.873.152-36.159-2.365-67.628-7.693-96.207-6.4-34.319-16.87-65.292-32.015-94.69-.111-.214-.224-.428-.335-.643v5a338.005,338.005,0,0,1,30.119,90.75c5.3,28.436,7.805,59.767,7.655,95.781" transform="translate(0 -192.143)" fill="#fff"/>
    </g>
  </g>
  <g id="Group_52" data-name="Group 52" transform="translate(0 0.027)">
    <g id="Group_51" data-name="Group 51" clip-path="url(#clip-path)">
      <path id="Path_34" data-name="Path 34" d="M32.784,213.149c15.042,29.2,25.444,59.968,31.8,94.066,5.3,28.436,7.806,59.767,7.655,95.781-.134,32.142-2.323,64.977-4.44,96.731-2.119,31.789-4.311,64.659-4.445,96.874-.152,36.156,2.365,67.627,7.693,96.207,6.4,34.317,16.87,65.289,32.015,94.686a345.433,345.433,0,0,0,28.924,46.487,403.986,403.986,0,0,0,39.542,45.752l1.6-1.6a401.2,401.2,0,0,1-39.32-45.5,343.419,343.419,0,0,1-28.733-46.174c-15.042-29.2-25.444-59.969-31.8-94.069-5.3-28.434-7.805-59.765-7.655-95.78.134-32.143,2.323-64.978,4.44-96.732,2.119-31.789,4.311-64.66,4.445-96.873.151-36.159-2.365-67.628-7.693-96.207-6.4-34.319-16.871-65.292-32.015-94.69A345.464,345.464,0,0,0,5.878,165.626Q3.014,161.737,0,157.872v3.711q2.059,2.689,4.05,5.389a343.249,343.249,0,0,1,28.734,46.178" transform="translate(0 -86.236)" fill="#fff"/>
      <path id="Path_35" data-name="Path 35" d="M67.25,92.475c15.042,29.2,25.444,59.968,31.8,94.067,5.3,28.436,7.806,59.766,7.655,95.781-.134,32.143-2.324,64.977-4.44,96.732-2.119,31.789-4.311,64.659-4.445,96.873-.151,36.16,2.365,67.627,7.693,96.207,6.4,34.317,16.871,65.289,32.015,94.691a345.388,345.388,0,0,0,28.924,46.483,403.644,403.644,0,0,0,39.542,45.752l1.605-1.6a401.568,401.568,0,0,1-39.32-45.493,343.369,343.369,0,0,1-28.733-46.179c-15.042-29.2-25.444-59.969-31.8-94.069-5.3-28.434-7.806-59.765-7.655-95.78.134-32.143,2.324-64.977,4.44-96.732,2.119-31.789,4.311-64.66,4.445-96.873.151-36.159-2.365-67.628-7.693-96.207-6.4-34.318-16.871-65.292-32.016-94.69A345.483,345.483,0,0,0,40.344,44.951,403.077,403.077,0,0,0,1.6,0H0V1.612A400.742,400.742,0,0,1,38.517,46.3,343.219,343.219,0,0,1,67.25,92.475" transform="translate(0 -0.027)" fill="#fff"/>
      <path id="Path_36" data-name="Path 36" d="M178.572,58.008c15.042,29.2,25.444,59.968,31.8,94.067,5.3,28.436,7.805,59.766,7.655,95.781-.134,32.142-2.323,64.977-4.44,96.732-2.119,31.789-4.311,64.659-4.445,96.872-.151,36.16,2.365,67.627,7.693,96.207,6.4,34.317,16.87,65.294,32.015,94.691a345.434,345.434,0,0,0,28.924,46.483A403.629,403.629,0,0,0,317.317,724.6l1.6-1.607A401.512,401.512,0,0,1,279.6,677.5a343.373,343.373,0,0,1-28.734-46.179c-15.042-29.2-25.444-59.969-31.8-94.069-5.3-28.434-7.805-59.765-7.655-95.78.134-32.142,2.323-64.977,4.44-96.731,2.119-31.789,4.311-64.66,4.445-96.873.151-36.159-2.365-67.628-7.693-96.207-6.4-34.319-16.87-65.293-32.015-94.69a345.486,345.486,0,0,0-28.924-46.484Q147.789,5.22,143.641,0h-2.9q4.714,5.884,9.1,11.83a343.335,343.335,0,0,1,28.733,46.178" transform="translate(-76.855 -0.027)" fill="#fff"/>
      <path id="Path_37" data-name="Path 37" d="M315.713,117.609c5.3,28.436,7.806,59.766,7.655,95.781-.134,32.142-2.323,64.977-4.44,96.732-2.119,31.789-4.311,64.659-4.445,96.872-.151,36.159,2.365,67.626,7.693,96.206,6.4,34.322,16.87,65.294,32.015,94.691a345.385,345.385,0,0,0,28.924,46.483,403.629,403.629,0,0,0,39.542,45.757l1.6-1.607a401.559,401.559,0,0,1-39.32-45.493,343.414,343.414,0,0,1-28.733-46.179c-15.042-29.2-25.444-59.969-31.8-94.064-5.3-28.439-7.805-59.769-7.655-95.783.134-32.142,2.323-64.977,4.44-96.731,2.119-31.789,4.311-64.66,4.445-96.873.151-36.159-2.365-67.628-7.693-96.207-6.4-34.319-16.871-65.292-32.015-94.69Q280.07,11.129,273.2,0h-2.666q7.228,11.609,13.379,23.542c15.042,29.2,25.444,59.968,31.8,94.067" transform="translate(-147.729 -0.027)" fill="#fff"/>
      <path id="Path_38" data-name="Path 38" d="M421.857,178.924c-.134,32.142-2.324,64.977-4.44,96.732-2.119,31.789-4.311,64.659-4.445,96.872-.151,36.159,2.365,67.628,7.693,96.2,6.4,34.322,16.871,65.294,32.015,94.691A345.714,345.714,0,0,0,481.6,609.91a404.028,404.028,0,0,0,39.542,45.752l1.605-1.607a401.558,401.558,0,0,1-39.32-45.493A343.082,343.082,0,0,1,454.7,562.383c-15.042-29.2-25.444-59.965-31.8-94.064-5.3-28.437-7.806-59.768-7.655-95.782.134-32.142,2.323-64.977,4.44-96.731,2.119-31.789,4.311-64.66,4.445-96.873.151-36.159-2.365-67.629-7.693-96.207A342.592,342.592,0,0,0,390.28,0h-2.5A340.063,340.063,0,0,1,414.2,83.142c5.3,28.436,7.806,59.767,7.655,95.781" transform="translate(-211.752 -0.027)" fill="#fff"/>
      <path id="Path_39" data-name="Path 39" d="M514.442,144.458c-.134,32.142-2.323,64.977-4.44,96.731-2.119,31.789-4.311,64.66-4.445,96.873-.151,36.159,2.365,67.628,7.693,96.206,6.4,34.319,16.871,65.291,32.015,94.692a345.712,345.712,0,0,0,28.924,46.483A403.985,403.985,0,0,0,613.731,621.2l1.6-1.6a401.245,401.245,0,0,1-39.32-45.5,343.4,343.4,0,0,1-28.733-46.174c-15.042-29.2-25.444-59.969-31.8-94.069-5.3-28.436-7.805-59.767-7.655-95.781.134-32.142,2.323-64.977,4.44-96.731,2.119-31.789,4.311-64.66,4.445-96.872.151-36.16-2.365-67.629-7.693-96.207A358.27,358.27,0,0,0,496.6,0h-2.392a355.642,355.642,0,0,1,12.579,48.676c5.3,28.436,7.805,59.767,7.655,95.782" transform="translate(-269.87 -0.027)" fill="#fff"/>
      <path id="Path_40" data-name="Path 40" d="M601.977,109.991c-.134,32.143-2.323,64.977-4.44,96.732-2.119,31.788-4.311,64.659-4.445,96.872-.152,36.159,2.365,67.628,7.693,96.207,6.4,34.319,16.87,65.29,32.015,94.692a345.388,345.388,0,0,0,28.924,46.483,403.631,403.631,0,0,0,39.542,45.752l1.605-1.6a401.208,401.208,0,0,1-39.32-45.5,343.083,343.083,0,0,1-28.733-46.174c-15.042-29.2-25.444-59.97-31.8-94.068-5.3-28.436-7.805-59.767-7.655-95.781.135-32.142,2.324-64.977,4.441-96.731,2.119-31.789,4.311-64.66,4.445-96.873.151-36.159-2.365-67.628-7.693-96.207Q595.25,6.806,593.718,0h-2.327q1.586,7.012,2.931,14.209c5.3,28.436,7.806,59.767,7.655,95.781" transform="translate(-322.938 -0.027)" fill="#fff"/>
      <path id="Path_41" data-name="Path 41" d="M755.87,41.058c-.134,32.142-2.323,64.977-4.44,96.732-2.119,31.789-4.311,64.66-4.445,96.872-.151,36.159,2.365,67.629,7.693,96.207,6.4,34.319,16.87,65.293,32.015,94.69a345.446,345.446,0,0,0,28.924,46.482A403.636,403.636,0,0,0,855.159,517.8l1.6-1.607a401.615,401.615,0,0,1-39.32-45.493,343.322,343.322,0,0,1-28.733-46.178c-15.042-29.2-25.444-59.968-31.8-94.066-5.3-28.436-7.805-59.767-7.655-95.781.134-32.142,2.323-64.977,4.44-96.731,2.119-31.789,4.311-64.66,4.445-96.873.06-14.4-.3-28.046-1.1-41.068h-2.274c.8,13.015,1.163,26.661,1.1,41.059" transform="translate(-407.899 -0.027)" fill="#fff"/>
      <path id="Path_42" data-name="Path 42" d="M1905.314,69.735l1.607-1.6a401.14,401.14,0,0,1-39.32-45.495Q1859.437,11.558,1852.245,0h-2.665q7.538,12.225,16.192,23.981a403.283,403.283,0,0,0,39.542,45.753" transform="translate(-1009.993 -0.027)" fill="#fff"/>
      <path id="Path_43" data-name="Path 43" d="M831.8,6.592c-.134,32.142-2.324,64.977-4.44,96.731-2.119,31.789-4.311,64.66-4.445,96.873-.152,36.159,2.365,67.628,7.693,96.207,6.4,34.318,16.87,65.292,32.015,94.69a345.494,345.494,0,0,0,28.924,46.484,404.15,404.15,0,0,0,39.54,45.754l1.607-1.607a401.622,401.622,0,0,1-39.32-45.493,343.289,343.289,0,0,1-28.733-46.178c-15.042-29.2-25.444-59.968-31.8-94.066-5.3-28.436-7.805-59.767-7.655-95.781.134-32.142,2.323-64.977,4.44-96.732,2.119-31.788,4.311-64.659,4.445-96.872q.014-3.328,0-6.6H831.8q.016,3.27,0,6.592" transform="translate(-449.361 -0.027)" fill="#fff"/>
      <path id="Path_44" data-name="Path 44" d="M898.84,165.73c-.151,36.159,2.365,67.628,7.693,96.207,6.4,34.319,16.871,65.293,32.015,94.69a345.707,345.707,0,0,0,28.923,46.484,403.738,403.738,0,0,0,39.542,45.753l1.607-1.6a401.141,401.141,0,0,1-39.32-45.495,342.955,342.955,0,0,1-28.734-46.178c-15.042-29.2-25.444-59.968-31.8-94.066-5.3-28.436-7.806-59.767-7.655-95.781.134-32.142,2.323-64.977,4.44-96.731C907.061,46.345,908.6,23.132,909.417,0h-2.271c-.812,23.073-2.353,46.24-3.861,68.857-2.119,31.789-4.311,64.66-4.445,96.872" transform="translate(-490.823 -0.027)" fill="#fff"/>
      <path id="Path_45" data-name="Path 45" d="M974.768,131.264c-.151,36.159,2.365,67.628,7.693,96.206,6.4,34.319,16.871,65.292,32.014,94.69a345.9,345.9,0,0,0,28.925,46.485,403.362,403.362,0,0,0,39.542,45.753l1.607-1.605a401.115,401.115,0,0,1-39.32-45.495,342.888,342.888,0,0,1-28.734-46.177c-15.043-29.2-25.448-59.969-31.8-94.067-5.3-28.436-7.805-59.766-7.655-95.781.134-32.142,2.323-64.977,4.44-96.731.76-11.4,1.528-22.943,2.208-34.542h-2.274c-.678,11.547-1.443,23.039-2.2,34.39-2.119,31.789-4.311,64.66-4.445,96.873" transform="translate(-532.284 -0.027)" fill="#fff"/>
      <path id="Path_46" data-name="Path 46" d="M1058.387,193c6.4,34.319,16.873,65.292,32.016,94.69a345.436,345.436,0,0,0,28.925,46.484,403.293,403.293,0,0,0,39.542,45.753l1.6-1.6a401.584,401.584,0,0,1-39.32-45.495,343.29,343.29,0,0,1-28.729-46.178c-15.043-29.2-25.448-59.968-31.8-94.066-5.3-28.436-7.808-59.767-7.658-95.781.136-32.142,2.324-64.977,4.444-96.731a.409.409,0,0,1,0-.075h-2.274c-2.12,31.765-4.308,64.609-4.444,96.8-.15,36.159,2.365,67.628,7.694,96.207" transform="translate(-573.744 -0.027)" fill="#fff"/>
      <path id="Path_47" data-name="Path 47" d="M1134.317,158.538c6.4,34.318,16.873,65.292,32.016,94.69a345.027,345.027,0,0,0,28.925,46.485,403.374,403.374,0,0,0,39.542,45.753l1.6-1.605a401.585,401.585,0,0,1-39.32-45.495,343.366,343.366,0,0,1-28.734-46.178c-15.039-29.2-25.443-59.968-31.8-94.066-5.3-28.436-7.808-59.767-7.658-95.781.086-20.651,1.021-41.587,2.242-62.34h-2.274c-1.217,20.742-2.152,41.671-2.238,62.331-.15,36.159,2.365,67.629,7.694,96.207" transform="translate(-615.207 -0.027)" fill="#fff"/>
      <path id="Path_48" data-name="Path 48" d="M1210.247,124.071c6.4,34.319,16.868,65.293,32.016,94.69a345.413,345.413,0,0,0,28.92,46.484A404.248,404.248,0,0,0,1310.725,311l1.607-1.6a401.642,401.642,0,0,1-39.32-45.5,343.35,343.35,0,0,1-28.734-46.177c-15.043-29.2-25.443-59.968-31.8-94.067-5.3-28.436-7.8-59.767-7.653-95.781Q1204.883,14,1205.4,0h-2.274c-.327,9.315-.536,18.617-.576,27.864-.15,36.159,2.365,67.628,7.694,96.207" transform="translate(-656.669 -0.027)" fill="#fff"/>
      <path id="Path_49" data-name="Path 49" d="M1318.2,184.295a345.9,345.9,0,0,0,28.925,46.484,403.726,403.726,0,0,0,39.542,45.753l1.607-1.6a401.142,401.142,0,0,1-39.32-45.495,342.939,342.939,0,0,1-28.734-46.178c-15.043-29.2-25.443-59.968-31.8-94.066C1283.438,62.5,1280.928,33.265,1280.76,0h-2.27c.168,33.407,2.692,62.78,7.694,89.6,6.4,34.319,16.868,65.293,32.011,94.69" transform="translate(-698.14 -0.027)" fill="#fff"/>
      <path id="Path_50" data-name="Path 50" d="M1395.447,149.829a345.891,345.891,0,0,0,28.925,46.484,403.282,403.282,0,0,0,39.542,45.753l1.6-1.6a401.523,401.523,0,0,1-39.315-45.495,342.9,342.9,0,0,1-28.734-46.177c-15.043-29.2-25.448-59.969-31.8-94.067A447.312,447.312,0,0,1,1359.11,0h-2.27a449.4,449.4,0,0,0,6.591,55.139c6.4,34.318,16.873,65.292,32.016,94.69" transform="translate(-740.924 -0.027)" fill="#fff"/>
      <path id="Path_51" data-name="Path 51" d="M1475.347,115.362a345.455,345.455,0,0,0,28.925,46.485,403.362,403.362,0,0,0,39.542,45.753l1.6-1.605A401.557,401.557,0,0,1,1506.1,160.5a343.315,343.315,0,0,1-28.729-46.177c-15.043-29.2-25.448-59.969-31.8-94.067q-1.845-9.883-3.237-20.256h-2.288q1.416,10.6,3.291,20.672c6.4,34.319,16.873,65.293,32.016,94.69" transform="translate(-786.357 -0.027)" fill="#fff"/>
      <path id="Path_52" data-name="Path 52" d="M1587.573,127.381a403.319,403.319,0,0,0,39.542,45.753l1.6-1.6a401.61,401.61,0,0,1-39.32-45.495,343.382,343.382,0,0,1-28.734-46.178A332.615,332.615,0,0,1,1531.794,0h-2.324a334.723,334.723,0,0,0,29.179,80.9,345.014,345.014,0,0,0,28.925,46.485" transform="translate(-835.191 -0.027)" fill="#fff"/>
      <path id="Path_53" data-name="Path 53" d="M1675.021,92.914a404.239,404.239,0,0,0,39.542,45.754l1.607-1.605a401.6,401.6,0,0,1-39.32-45.495,343.366,343.366,0,0,1-28.734-46.178A326.844,326.844,0,0,1,1628.9,0h-2.4a329.668,329.668,0,0,0,19.6,46.43,345.415,345.415,0,0,0,28.92,46.484" transform="translate(-888.176 -0.027)" fill="#fff"/>
      <path id="Path_54" data-name="Path 54" d="M1767.475,58.448a403.819,403.819,0,0,0,39.542,45.753l1.607-1.605A401.154,401.154,0,0,1,1769.3,57.1a342.893,342.893,0,0,1-28.734-46.177Q1737.772,5.5,1735.2,0h-2.506q2.805,6.028,5.86,11.963a345.91,345.91,0,0,0,28.925,46.485" transform="translate(-946.163 -0.027)" fill="#fff"/>
      <path id="Path_55" data-name="Path 55" d="M2011.974,33.664A412.551,412.551,0,0,1,1981.751,0h-2.9a413.346,413.346,0,0,0,31.521,35.269Z" transform="translate(-1080.583 -0.027)" fill="#fff"/>
      <path id="Path_56" data-name="Path 56" d="M2124.058,0h-1.6c.268.267.531.535.8.8Z" transform="translate(-1159.003 -0.027)" fill="#fff"/>
    </g>
  </g>
  <g id="Group_54" data-name="Group 54">
    <g id="Group_53" data-name="Group 53" clip-path="url(#clip-path-2)">
      <path id="Path_57" data-name="Path 57" d="M1019.148,1496.217c.15-36.16-2.365-67.632-7.694-96.207-6.4-34.322-16.873-65.294-32.016-94.691a344.938,344.938,0,0,0-28.925-46.487,403.851,403.851,0,0,0-39.541-45.752l-1.6,1.607a401.557,401.557,0,0,1,39.32,45.493,343.606,343.606,0,0,1,28.735,46.179c15.039,29.2,25.443,59.965,31.8,94.064,5.3,28.439,7.808,59.77,7.658,95.78-.136,32.143-2.324,64.981-4.439,96.733-.763,11.4-1.53,22.942-2.211,34.54h2.274c.676-11.543,1.444-23.037,2.2-34.39,2.12-31.789,4.312-64.658,4.448-96.87" transform="translate(-496.575 -662.422)" fill="#fff"/>
      <path id="Path_58" data-name="Path 58" d="M0,2125.019H1.6c-.266-.263-.529-.536-.8-.8Z" transform="translate(0 -1159.964)" fill="#fff"/>
      <path id="Path_59" data-name="Path 59" d="M75.765,2048.29l-1.6,1.6a412.752,412.752,0,0,1,30.225,33.664h2.9A413.124,413.124,0,0,0,75.765,2048.29Z" transform="translate(-40.496 -1118.501)" fill="#fff"/>
      <path id="Path_60" data-name="Path 60" d="M151.693,1972.36l-1.6,1.607a401.556,401.556,0,0,1,39.32,45.493q8.159,11.078,15.355,22.633h2.666c-5.028-8.148-10.436-16.165-16.193-23.981a404.041,404.041,0,0,0-39.543-45.752" transform="translate(-81.958 -1077.039)" fill="#fff"/>
      <path id="Path_61" data-name="Path 61" d="M267.163,1942.187a403.633,403.633,0,0,0-39.542-45.756l-1.6,1.607a401.566,401.566,0,0,1,39.32,45.493,343.409,343.409,0,0,1,28.733,46.179q2.794,5.42,5.376,10.922h2.5q-2.806-6.026-5.861-11.961a345.4,345.4,0,0,0-28.924-46.483" transform="translate(-123.42 -1035.576)" fill="#fff"/>
      <path id="Path_62" data-name="Path 62" d="M343.091,1866.257a403.619,403.619,0,0,0-39.542-45.757l-1.605,1.607a401.569,401.569,0,0,1,39.32,45.493A343.372,343.372,0,0,1,370,1913.779a327.07,327.07,0,0,1,19.222,45.389h2.393a329.352,329.352,0,0,0-19.6-46.428,345.383,345.383,0,0,0-28.924-46.483" transform="translate(-164.881 -994.113)" fill="#fff"/>
      <path id="Path_63" data-name="Path 63" d="M419.019,1790.332a403.24,403.24,0,0,0-39.542-45.752l-1.605,1.6a401.557,401.557,0,0,1,39.32,45.493,343.367,343.367,0,0,1,28.733,46.179A332.655,332.655,0,0,1,474.8,1917.71h2.327a335.023,335.023,0,0,0-29.18-80.9,345.386,345.386,0,0,0-28.924-46.483" transform="translate(-206.343 -952.656)" fill="#fff"/>
      <path id="Path_64" data-name="Path 64" d="M523.871,1760.885a345.674,345.674,0,0,0-28.924-46.483A403.994,403.994,0,0,0,455.4,1668.65l-1.6,1.6a401.191,401.191,0,0,1,39.32,45.5,343.085,343.085,0,0,1,28.733,46.174c15.042,29.2,25.444,59.969,31.8,94.069q1.843,9.88,3.234,20.255h2.29q-1.416-10.595-3.293-20.672c-6.4-34.317-16.87-65.289-32.015-94.691" transform="translate(-247.805 -911.193)" fill="#fff"/>
      <path id="Path_65" data-name="Path 65" d="M599.8,1684.959a345.482,345.482,0,0,0-28.923-46.488,404.013,404.013,0,0,0-39.543-45.752l-1.6,1.607a401.548,401.548,0,0,1,39.32,45.493A343.079,343.079,0,0,1,597.781,1686c15.042,29.2,25.444,59.965,31.8,94.064a447.221,447.221,0,0,1,6.552,54.722h2.274a449.571,449.571,0,0,0-6.595-55.135c-6.4-34.322-16.871-65.294-32.016-94.691" transform="translate(-289.266 -869.73)" fill="#fff"/>
      <path id="Path_66" data-name="Path 66" d="M675.727,1609.029a345.435,345.435,0,0,0-28.923-46.483,403.679,403.679,0,0,0-39.543-45.757l-1.6,1.607a401.548,401.548,0,0,1,39.32,45.493,343.367,343.367,0,0,1,28.733,46.179c15.042,29.2,25.444,59.969,31.8,94.064,4.976,26.687,7.487,55.925,7.652,89.189h2.27c-.166-33.405-2.69-62.779-7.691-89.6-6.4-34.322-16.87-65.294-32.015-94.691" transform="translate(-330.728 -828.267)" fill="#fff"/>
      <path id="Path_67" data-name="Path 67" d="M783.67,1627.79c-6.4-34.317-16.87-65.294-32.015-94.691a345.392,345.392,0,0,0-28.924-46.483,403.634,403.634,0,0,0-39.542-45.756l-1.6,1.607a401.569,401.569,0,0,1,39.32,45.493,343.412,343.412,0,0,1,28.733,46.179c15.042,29.2,25.444,59.969,31.8,94.069,5.3,28.435,7.805,59.765,7.655,95.78-.039,9.247-.252,18.552-.58,27.871h2.271c.327-9.315.539-18.616.578-27.862.151-36.16-2.365-67.627-7.694-96.207" transform="translate(-372.19 -786.805)" fill="#fff"/>
      <path id="Path_68" data-name="Path 68" d="M859.6,1551.865c-6.4-34.317-16.87-65.289-32.015-94.691a345.386,345.386,0,0,0-28.924-46.483,403.248,403.248,0,0,0-39.542-45.752l-1.605,1.6a401.213,401.213,0,0,1,39.32,45.5,343.034,343.034,0,0,1,28.733,46.174c15.042,29.2,25.444,59.969,31.8,94.069,5.3,28.434,7.805,59.765,7.655,95.78-.087,20.649-1.023,41.589-2.241,62.339h2.273c1.217-20.74,2.151-41.671,2.237-62.33.152-36.16-2.365-67.627-7.693-96.207" transform="translate(-413.652 -745.347)" fill="#fff"/>
      <path id="Path_69" data-name="Path 69" d="M935.525,1475.936c-6.4-34.318-16.868-65.289-32.015-94.691a345.674,345.674,0,0,0-28.924-46.483,404.041,404.041,0,0,0-39.542-45.752l-1.605,1.6a401.213,401.213,0,0,1,39.32,45.5,343.042,343.042,0,0,1,28.733,46.174c15.04,29.2,25.444,59.969,31.8,94.069,5.3,28.435,7.8,59.765,7.653,95.78-.136,32.143-2.324,64.976-4.44,96.733a.392.392,0,0,0,0,.073h2.274c2.115-31.762,4.3-64.608,4.44-96.8.15-36.156-2.365-67.627-7.694-96.207" transform="translate(-455.113 -703.884)" fill="#fff"/>
    </g>
  </g>
  <g id="Group_56" data-name="Group 56" transform="translate(0 0.027)">
    <g id="Group_55" data-name="Group 55" clip-path="url(#clip-path)">
      <path id="Path_70" data-name="Path 70" d="M1095.077,1420.287c.15-36.16-2.37-67.632-7.694-96.207-6.4-34.322-16.873-65.294-32.016-94.691a345.377,345.377,0,0,0-28.925-46.483A403.3,403.3,0,0,0,986.9,1137.15l-1.6,1.607a401.564,401.564,0,0,1,39.322,45.493,343.19,343.19,0,0,1,28.729,46.179c15.043,29.2,25.448,59.969,31.8,94.064,5.3,28.439,7.808,59.77,7.658,95.785-.136,32.138-2.324,64.976-4.444,96.729-1.511,22.665-3.05,45.875-3.867,69.007h2.274c.813-23.073,2.351-46.238,3.858-68.857,2.12-31.789,4.312-64.658,4.449-96.87" transform="translate(-538.037 -620.986)" fill="#fff"/>
      <path id="Path_71" data-name="Path 71" d="M1973.967,150.088l-1.607,1.605a401.555,401.555,0,0,1,39.32,45.495,343.349,343.349,0,0,1,28.734,46.177q.851,1.655,1.68,3.316v-5a346.035,346.035,0,0,0-28.584-45.841,404.251,404.251,0,0,0-39.542-45.754" transform="translate(-1077.039 -81.985)" fill="#fff"/>
    </g>
  </g>
  <g id="Group_58" data-name="Group 58">
    <g id="Group_57" data-name="Group 57" clip-path="url(#clip-path-2)">
      <path id="Path_72" data-name="Path 72" d="M1162.116,1537.96c.132-32.143,2.324-64.976,4.439-96.729,2.12-31.789,4.312-64.663,4.444-96.874.154-36.16-2.365-67.627-7.69-96.207-6.4-34.317-16.873-65.294-32.016-94.691a345.8,345.8,0,0,0-28.925-46.483,403.728,403.728,0,0,0-39.542-45.757l-1.607,1.607a401.247,401.247,0,0,1,39.32,45.493,343.072,343.072,0,0,1,28.734,46.179c15.043,29.2,25.443,59.969,31.8,94.069,5.3,28.434,7.808,59.765,7.653,95.78-.132,32.143-2.324,64.976-4.439,96.729-2.12,31.789-4.308,64.663-4.444,96.874q-.014,3.33,0,6.6h2.27q-.014-3.268,0-6.591" transform="translate(-579.496 -579.496)" fill="#fff"/>
      <path id="Path_73" data-name="Path 73" d="M1238.046,1462.033c.132-32.138,2.32-64.976,4.439-96.729,2.12-31.789,4.308-64.658,4.444-96.874.15-36.16-2.365-67.627-7.694-96.207-6.4-34.317-16.868-65.289-32.016-94.691a345.32,345.32,0,0,0-28.92-46.483,403.929,403.929,0,0,0-39.542-45.754l-1.607,1.605a401.6,401.6,0,0,1,39.32,45.492,343.042,343.042,0,0,1,28.734,46.179c15.043,29.2,25.443,59.969,31.8,94.069,5.3,28.435,7.8,59.765,7.653,95.78-.132,32.143-2.324,64.976-4.439,96.733-2.12,31.789-4.312,64.658-4.444,96.87-.064,14.4.3,28.049,1.1,41.067h2.27c-.794-13.014-1.162-26.66-1.1-41.058" transform="translate(-620.959 -538.037)" fill="#fff"/>
      <path id="Path_74" data-name="Path 74" d="M1313.971,1386.109c.136-32.143,2.324-64.981,4.444-96.733,2.12-31.789,4.308-64.658,4.444-96.874.15-36.156-2.365-67.627-7.694-96.207-6.4-34.317-16.868-65.289-32.016-94.691a345.591,345.591,0,0,0-28.92-46.483,404.324,404.324,0,0,0-39.542-45.753l-1.607,1.605a401.47,401.47,0,0,1,39.32,45.5,343.165,343.165,0,0,1,28.734,46.174c15.043,29.2,25.443,59.969,31.8,94.069,5.3,28.435,7.8,59.765,7.653,95.78-.136,32.143-2.324,64.976-4.44,96.733-2.12,31.789-4.312,64.658-4.449,96.87a552.786,552.786,0,0,0,4.4,75.535h2.288a549.961,549.961,0,0,1-4.421-75.521" transform="translate(-662.422 -496.575)" fill="#fff"/>
      <path id="Path_75" data-name="Path 75" d="M1389.9,1310.18c.136-32.143,2.324-64.981,4.439-96.733,2.12-31.789,4.313-64.658,4.448-96.869.15-36.16-2.365-67.632-7.694-96.207-6.4-34.322-16.873-65.294-32.016-94.691a344.943,344.943,0,0,0-28.925-46.486,403.345,403.345,0,0,0-39.542-45.753l-1.6,1.6a401.644,401.644,0,0,1,39.32,45.495,343.652,343.652,0,0,1,28.734,46.18c15.039,29.2,25.443,59.965,31.8,94.064,5.3,28.439,7.808,59.769,7.658,95.78-.136,32.143-2.324,64.981-4.44,96.733-2.12,31.789-4.312,64.658-4.448,96.874-.15,36.156,2.365,67.627,7.694,96.207q1.3,6.986,2.837,13.791h2.324q-1.586-7.007-2.928-14.208c-5.3-28.434-7.808-59.765-7.658-95.78" transform="translate(-703.884 -455.113)" fill="#fff"/>
      <path id="Path_76" data-name="Path 76" d="M1465.831,1234.251c.136-32.143,2.324-64.976,4.439-96.733,2.12-31.784,4.313-64.658,4.449-96.87.15-36.16-2.37-67.632-7.694-96.207-6.4-34.322-16.873-65.294-32.016-94.691a345.471,345.471,0,0,0-28.925-46.485,403.344,403.344,0,0,0-39.542-45.753l-1.6,1.605a401.588,401.588,0,0,1,39.32,45.495,343.327,343.327,0,0,1,28.729,46.177c15.043,29.2,25.448,59.97,31.8,94.065,5.3,28.439,7.808,59.77,7.658,95.785-.136,32.139-2.324,64.976-4.444,96.729-2.12,31.789-4.308,64.658-4.444,96.874-.15,36.16,2.365,67.627,7.694,96.207a357.963,357.963,0,0,0,12.42,48.258h2.392a355.448,355.448,0,0,1-12.583-48.675c-5.3-28.434-7.8-59.765-7.653-95.78" transform="translate(-745.347 -413.652)" fill="#fff"/>
      <path id="Path_77" data-name="Path 77" d="M1541.756,1158.322c.132-32.143,2.324-64.976,4.439-96.729,2.12-31.789,4.313-64.663,4.444-96.874.154-36.16-2.365-67.627-7.69-96.207-6.4-34.317-16.873-65.293-32.016-94.69a345.893,345.893,0,0,0-28.925-46.484,403.744,403.744,0,0,0-39.542-45.753l-1.607,1.6a401.108,401.108,0,0,1,39.32,45.495,342.868,342.868,0,0,1,28.734,46.178c15.043,29.2,25.443,59.969,31.8,94.068,5.3,28.434,7.808,59.765,7.653,95.78-.132,32.143-2.324,64.976-4.439,96.729-2.12,31.789-4.308,64.663-4.444,96.874-.154,36.16,2.365,67.627,7.694,96.207a342.444,342.444,0,0,0,26.151,82.725h2.506a339.886,339.886,0,0,1-26.428-83.143c-5.3-28.434-7.8-59.765-7.653-95.78" transform="translate(-786.805 -372.19)" fill="#fff"/>
      <path id="Path_78" data-name="Path 78" d="M1625.339,1178.178c-5.3-28.439-7.808-59.77-7.653-95.785.132-32.139,2.32-64.976,4.439-96.729,2.12-31.789,4.308-64.658,4.444-96.874.15-36.16-2.365-67.627-7.694-96.207-6.4-34.318-16.868-65.292-32.016-94.689a345.407,345.407,0,0,0-28.92-46.485,404.279,404.279,0,0,0-39.542-45.753l-1.607,1.605a401.557,401.557,0,0,1,39.32,45.495,342.905,342.905,0,0,1,28.734,46.177c15.043,29.2,25.443,59.968,31.8,94.068,5.3,28.434,7.8,59.765,7.653,95.78-.132,32.143-2.324,64.976-4.439,96.733-2.12,31.789-4.312,64.658-4.444,96.87-.154,36.16,2.365,67.632,7.69,96.207,6.4,34.322,16.873,65.294,32.016,94.691q5.863,11.371,12.733,22.5h2.665q-7.231-11.609-13.377-23.541c-15.043-29.2-25.448-59.969-31.8-94.064" transform="translate(-828.267 -330.728)" fill="#fff"/>
      <path id="Path_79" data-name="Path 79" d="M1733.072,1196.313c-15.043-29.2-25.448-59.965-31.8-94.064-5.3-28.439-7.808-59.769-7.658-95.78.136-32.143,2.324-64.981,4.444-96.733,2.115-31.789,4.308-64.658,4.444-96.874.15-36.156-2.365-67.627-7.694-96.2-6.4-34.319-16.868-65.292-32.016-94.69a345.462,345.462,0,0,0-28.92-46.485,403.873,403.873,0,0,0-39.547-45.753l-1.6,1.605a401.563,401.563,0,0,1,39.32,45.495,343.363,343.363,0,0,1,28.734,46.178c15.039,29.2,25.443,59.968,31.8,94.066,5.3,28.434,7.8,59.765,7.653,95.78-.136,32.143-2.324,64.981-4.439,96.733-2.12,31.789-4.312,64.658-4.449,96.87-.15,36.16,2.365,67.632,7.694,96.207,6.4,34.322,16.873,65.294,32.016,94.691a345.4,345.4,0,0,0,28.925,46.487q3.874,5.264,8.026,10.481h2.9q-4.712-5.883-9.1-11.83a343.19,343.19,0,0,1-28.729-46.179" transform="translate(-869.73 -289.266)" fill="#fff"/>
      <path id="Path_80" data-name="Path 80" d="M1876.248,1211.248a400.546,400.546,0,0,1-38.516-44.685A343.461,343.461,0,0,1,1809,1120.389c-15.039-29.2-25.443-59.969-31.8-94.069-5.3-28.434-7.808-59.765-7.658-95.78.136-32.143,2.324-64.981,4.439-96.733,2.12-31.789,4.312-64.658,4.449-96.87.15-36.161-2.365-67.631-7.694-96.209-6.4-34.318-16.873-65.292-32.016-94.69a344.962,344.962,0,0,0-28.925-46.484,403.284,403.284,0,0,0-39.542-45.753l-1.6,1.6a401.586,401.586,0,0,1,39.32,45.495,343.8,343.8,0,0,1,28.734,46.178c15.039,29.2,25.443,59.968,31.8,94.066,5.3,28.436,7.808,59.766,7.658,95.779-.136,32.143-2.324,64.981-4.44,96.733-2.12,31.789-4.312,64.658-4.448,96.874-.15,36.156,2.365,67.627,7.694,96.207,6.4,34.318,16.873,65.289,32.016,94.691a345.181,345.181,0,0,0,28.925,46.483,403.04,403.04,0,0,0,38.743,44.949h1.6Z" transform="translate(-911.193 -247.805)" fill="#fff"/>
      <path id="Path_81" data-name="Path 81" d="M1884.927,1044.46c-15.043-29.2-25.443-59.969-31.8-94.069-5.3-28.434-7.8-59.765-7.653-95.78.136-32.143,2.324-64.976,4.44-96.733,2.12-31.784,4.312-64.658,4.448-96.87.15-36.16-2.37-67.63-7.694-96.208-6.4-34.319-16.873-65.293-32.016-94.69a345.441,345.441,0,0,0-28.925-46.485,403.373,403.373,0,0,0-39.542-45.753l-1.6,1.6a401.587,401.587,0,0,1,39.32,45.5,343.316,343.316,0,0,1,28.729,46.177c15.043,29.2,25.448,59.969,31.8,94.067,5.3,28.436,7.808,59.766,7.658,95.783-.136,32.139-2.324,64.976-4.444,96.729-2.12,31.789-4.308,64.658-4.444,96.874-.15,36.16,2.365,67.627,7.694,96.207,6.4,34.317,16.868,65.289,32.016,94.691a345.316,345.316,0,0,0,28.92,46.483q2.866,3.888,5.878,7.753v-3.709q-2.056-2.689-4.049-5.388a343.494,343.494,0,0,1-28.734-46.179" transform="translate(-952.656 -206.343)" fill="#fff"/>
      <path id="Path_82" data-name="Path 82" d="M1921.4,778.682c.132-32.143,2.324-64.976,4.439-96.729,2.12-31.789,4.312-64.661,4.444-96.875.154-36.159-2.365-67.628-7.69-96.206-6.4-34.319-16.873-65.292-32.016-94.69a345.878,345.878,0,0,0-28.925-46.484,403.779,403.779,0,0,0-39.542-45.753l-1.607,1.6a401.139,401.139,0,0,1,39.32,45.495,342.894,342.894,0,0,1,28.734,46.177c15.043,29.2,25.443,59.968,31.8,94.067,5.3,28.436,7.8,59.767,7.653,95.781-.132,32.143-2.324,64.977-4.439,96.73-2.12,31.789-4.312,64.663-4.444,96.874-.15,36.16,2.365,67.627,7.694,96.207,6.4,34.317,16.868,65.294,32.011,94.691.113.213.227.427.336.645v-5a338.165,338.165,0,0,1-30.119-90.755c-5.3-28.434-7.8-59.765-7.653-95.78" transform="translate(-994.113 -164.882)" fill="#fff"/>
      <path id="Path_83" data-name="Path 83" d="M1966.5,318.254a345.361,345.361,0,0,0-28.92-46.484,404.239,404.239,0,0,0-39.542-45.754l-1.607,1.605a401.611,401.611,0,0,1,39.32,45.495,342.882,342.882,0,0,1,28.734,46.178c15.043,29.2,25.443,59.968,31.8,94.066,1.752,9.409,3.2,19.138,4.344,29.246V425.415q-.967-6.329-2.115-12.471c-6.4-34.318-16.868-65.292-32.016-94.69" transform="translate(-1035.576 -123.42)" fill="#fff"/>
      <path id="Path_84" data-name="Path 84" d="M2113.692,1139.047c-.132,30.981,1.7,58.512,5.574,83.737V1205.6a568.16,568.16,0,0,1-3.3-66.542c.109-26.383,1.6-53.233,3.3-79.57V1025.01q-.552,8.62-1.13,17.168c-2.12,31.789-4.312,64.658-4.444,96.87" transform="translate(-1154.212 -559.723)" fill="#fff"/>
      <path id="Path_85" data-name="Path 85" d="M2048.29,75.765a405.966,405.966,0,0,1,35.266,40.106V112.16a410.232,410.232,0,0,0-33.664-38Z" transform="translate(-1118.501 -40.496)" fill="#fff"/>
      <path id="Path_86" data-name="Path 86" d="M2125.019,1.612V0l-.8.8c.268.269.531.54.8.81" transform="translate(-1159.964 0.001)" fill="#fff"/>
    </g>
  </g>
</svg>
