<svg xmlns="http://www.w3.org/2000/svg" width="19.5" height="19.5" viewBox="0 0 19.5 19.5">
  <g id="info_circle" data-name="info circle" transform="translate(-2.25 -2.25)">
    <path id="Path_7" data-name="Path 7" d="M12,2.25A9.75,9.75,0,1,1,2.25,12,9.761,9.761,0,0,1,12,2.25Zm0,18A8.25,8.25,0,1,0,3.75,12,8.259,8.259,0,0,0,12,20.25Z" fill="#555772"/>
    <path id="Path_8" data-name="Path 8" d="M12,9.1a.75.75,0,0,1-.75-.75V8.291a.75.75,0,0,1,1.5,0v.063A.75.75,0,0,1,12,9.1Z" fill="#555772"/>
    <path id="Path_107" data-name="Path 107" d="M12.006,16.443a.75.75,0,0,1-.75-.75v-4.3a.75.75,0,0,1,1.5,0v4.3A.75.75,0,0,1,12.006,16.443Z" fill="#555772"/>
  </g>
</svg>
