<svg xmlns="http://www.w3.org/2000/svg" width="28" height="28" viewBox="0 0 28 28">
  <g id="Iconly_Light_Location" data-name="Iconly/Light/Location" transform="translate(4.5 4)">
    <g id="Location" transform="translate(3.75 2.25)">
      <path id="Stroke-1" d="M7.25,10.25a3,3,0,1,1,3-3A3,3,0,0,1,7.25,10.25Zm0-4.615A1.615,1.615,0,1,0,8.865,7.25,1.618,1.618,0,0,0,7.25,5.635Z" transform="translate(-1.5 -0.885)" fill="#555774"/>
      <path id="Stroke-3" d="M6.865,17.25c-1.006,0-3.015-1.65-4.394-3.2C1.268,12.693-.75,9.966-.75,6.924A7.653,7.653,0,0,1,6.865-.75a7.654,7.654,0,0,1,7.616,7.674c0,3.042-2.018,5.769-3.222,7.123C9.88,15.6,7.871,17.25,6.865,17.25Zm0-16.615A6.267,6.267,0,0,0,.635,6.924c0,2.53,1.734,4.9,2.768,6.086a10.814,10.814,0,0,0,3.462,2.851,10.816,10.816,0,0,0,3.463-2.851C11.362,11.823,13.1,9.454,13.1,6.924A6.268,6.268,0,0,0,6.865.635Z" transform="translate(-1.115 -0.5)" fill="#555774"/>
      <rect id="Rectangle_3724" data-name="Rectangle 3724" width="28" height="28" transform="translate(-8.25 -6.25)" fill="none"/>
    </g>
  </g>
</svg>
