<svg xmlns="http://www.w3.org/2000/svg" width="24" height="24" viewBox="0 0 24 24">
  <g id="Group_11868" data-name="Group 11868" transform="translate(-264 -311)">
    <rect id="Rectangle_1474" data-name="Rectangle 1474" width="24" height="24" transform="translate(264 311)" fill="none"/>
    <g id="Iconly_Light_Show" data-name="Iconly/Light/Show" transform="translate(265 311.999)">
      <g id="Show" transform="translate(2 4.001)">
        <path id="Stroke-1" d="M9.608,11.182a3.52,3.52,0,1,1,3.521-3.52A3.524,3.524,0,0,1,9.608,11.182Zm0-5.691a2.17,2.17,0,1,0,2.171,2.171A2.173,2.173,0,0,0,9.608,5.491Z" transform="translate(-0.609 -0.415)" fill="#282941"/>
        <path id="Stroke-3" d="M9,14.495H9A8.384,8.384,0,0,1,3.8,12.6,12.939,12.939,0,0,1,.055,7.514a.675.675,0,0,1,0-.533A12.939,12.939,0,0,1,3.8,1.892,8.384,8.384,0,0,1,9,0H9a8.384,8.384,0,0,1,5.2,1.891,12.939,12.939,0,0,1,3.742,5.089.675.675,0,0,1,0,.533A12.939,12.939,0,0,1,14.2,12.6,8.384,8.384,0,0,1,9,14.495ZM1.413,7.248a11.447,11.447,0,0,0,3.219,4.3A7.049,7.049,0,0,0,9,13.145a7.049,7.049,0,0,0,4.368-1.6,11.447,11.447,0,0,0,3.219-4.3,11.447,11.447,0,0,0-3.219-4.3A7.049,7.049,0,0,0,9,1.351a7.049,7.049,0,0,0-4.368,1.6A11.447,11.447,0,0,0,1.413,7.248Z" transform="translate(0 -0.001)" fill="#282941"/>
      </g>
    </g>
  </g>
</svg>
