<svg xmlns="http://www.w3.org/2000/svg" width="13.5" height="14.59" viewBox="0 0 13.5 14.59">
  <g id="Iconly_Light_Delete" data-name="Iconly/Light/Delete" transform="translate(-3 -2.001)">
    <g id="Delete" transform="translate(3.75 2.751)">
      <path id="Stroke-1" d="M7.159,16.555c-.963,0-1.9-.01-2.814-.029a2.308,2.308,0,0,1-2.349-2.2c-.223-2.013-.6-6.753-.609-6.8a.75.75,0,0,1,1.5-.12c0,.047.384,4.765.6,6.756.084.759.548.856.89.863,1.744.037,3.6.038,5.511,0a.847.847,0,0,0,.937-.871c.219-1.974.6-6.7.605-6.751a.75.75,0,0,1,1.5.121c0,.048-.388,4.8-.609,6.8a2.335,2.335,0,0,1-2.4,2.205C8.98,16.547,8.059,16.555,7.159,16.555Z" transform="translate(-1.155 -2.715)" fill="#28293f"/>
      <path id="Stroke-3" d="M12,.75H0A.75.75,0,0,1-.75,0,.75.75,0,0,1,0-.75H12a.75.75,0,0,1,.75.75A.75.75,0,0,1,12,.75Z" transform="translate(0 2.469)" fill="#28293f"/>
      <path id="Stroke-5" d="M11.393,3.97A1.921,1.921,0,0,1,9.515,2.43L9.35,1.6A.156.156,0,0,0,9.2,1.5h-3a.156.156,0,0,0-.147.1L5.9,2.43A1.921,1.921,0,0,1,4.018,3.97a.75.75,0,0,1,0-1.5.417.417,0,0,0,.407-.334l.172-.86q0-.024.011-.047A1.658,1.658,0,0,1,6.208,0h3a1.658,1.658,0,0,1,1.6,1.228q.006.023.011.047l.172.86a.417.417,0,0,0,.407.334.75.75,0,0,1,0,1.5Z" transform="translate(-1.705 -0.751)" fill="#28293f"/>
    </g>
  </g>
</svg>
