<svg id="Group_59" data-name="Group 59" xmlns="http://www.w3.org/2000/svg" xmlns:xlink="http://www.w3.org/1999/xlink" width="476.054" height="476.054" viewBox="0 0 476.054 476.054">
  <defs>
    <clipPath id="clip-path">
      <rect id="Rectangle_28" data-name="Rectangle 28" width="476.04" height="476.04" fill="#fafafa"/>
    </clipPath>
    <clipPath id="clip-path-2">
      <rect id="Rectangle_29" data-name="Rectangle 29" width="476.054" height="476.054" fill="#fafafa"/>
    </clipPath>
  </defs>
  <g id="Group_48" data-name="Group 48" transform="translate(0 0.013)">
    <g id="Group_47" data-name="Group 47" clip-path="url(#clip-path)">
      <path id="Path_27" data-name="Path 27" d="M675.436,37.256c-.066,15.855-1.146,32.053-2.19,47.717-1.046,15.681-2.126,31.9-2.193,47.786-.075,17.837,1.167,33.361,3.8,47.458a167.481,167.481,0,0,0,15.793,46.71,170.373,170.373,0,0,0,14.268,22.93,199.136,199.136,0,0,0,19.506,22.571l.792-.793a198.075,198.075,0,0,1-19.4-22.441,169.378,169.378,0,0,1-14.174-22.78,166.383,166.383,0,0,1-15.688-46.4c-2.615-14.027-3.85-29.482-3.776-47.248.066-15.855,1.146-32.053,2.19-47.717,1.046-15.681,2.127-31.9,2.193-47.787A272.457,272.457,0,0,0,674.385,0h-1.13a271.06,271.06,0,0,1,2.181,37.256" transform="translate(-520.787 -0.013)" fill="#fafafa"/>
    </g>
  </g>
  <g id="Group_50" data-name="Group 50">
    <g id="Group_49" data-name="Group 49" clip-path="url(#clip-path-2)">
      <path id="Path_28" data-name="Path 28" d="M0,2122.43v.8l.4-.394-.4-.4" transform="translate(0 -1647.171)" fill="#fafafa"/>
      <path id="Path_29" data-name="Path 29" d="M17.4,1979.723A200.643,200.643,0,0,1,0,1959.94v1.83a202.461,202.461,0,0,0,16.606,18.744Z" transform="translate(0 -1521.066)" fill="#fafafa"/>
      <path id="Path_30" data-name="Path 30" d="M33.608,1810.758l.792-.793A198.091,198.091,0,0,1,15,1787.524,169.409,169.409,0,0,1,.83,1764.745c-.28-.544-.556-1.09-.83-1.635v2.465a170.683,170.683,0,0,0,14.1,22.612,199.115,199.115,0,0,0,19.506,22.571" transform="translate(0 -1368.311)" fill="#fafafa"/>
      <path id="Path_31" data-name="Path 31" d="M2.751,706.593A264.2,264.2,0,0,0,0,665.287v8.48a280.608,280.608,0,0,1,1.632,32.821C1.577,719.6.84,732.845,0,745.835v17.009q.275-4.252.558-8.464c1.045-15.682,2.126-31.9,2.193-47.787" transform="translate(0 -516.315)" fill="#fafafa"/>
      <path id="Path_32" data-name="Path 32" d="M16.836,1484.179a170.367,170.367,0,0,0,14.268,22.93A199.124,199.124,0,0,0,50.61,1529.68l.792-.793a198.081,198.081,0,0,1-19.4-22.441,169.378,169.378,0,0,1-14.174-22.78,166.375,166.375,0,0,1-15.687-46.4c-.865-4.642-1.579-9.441-2.144-14.425v8.478q.48,3.124,1.043,6.151a167.455,167.455,0,0,0,15.793,46.71" transform="translate(0 -1104.235)" fill="#fafafa"/>
      <path id="Path_33" data-name="Path 33" d="M18.634,446.348c-.066,15.855-1.146,32.053-2.19,47.717-1.045,15.682-2.126,31.9-2.193,47.786-.075,17.838,1.167,33.362,3.8,47.458a167.454,167.454,0,0,0,15.793,46.71,170.419,170.419,0,0,0,14.268,22.932A199.287,199.287,0,0,0,67.612,681.52l.792-.793a198.078,198.078,0,0,1-19.4-22.441,169.264,169.264,0,0,1-14.174-22.78,166.34,166.34,0,0,1-15.687-46.4c-2.615-14.029-3.851-29.484-3.776-47.25C15.436,526,16.516,509.8,17.56,494.14c1.045-15.681,2.126-31.9,2.193-47.787.075-17.837-1.167-33.361-3.8-47.458A167.477,167.477,0,0,0,.165,352.185c-.055-.106-.111-.211-.165-.317v2.466A166.736,166.736,0,0,1,14.858,399.1c2.615,14.027,3.85,29.482,3.776,47.248" transform="translate(0 -273.077)" fill="#fafafa"/>
    </g>
  </g>
  <g id="Group_52" data-name="Group 52" transform="translate(0 0.013)">
    <g id="Group_51" data-name="Group 51" clip-path="url(#clip-path)">
      <path id="Path_34" data-name="Path 34" d="M16.172,185.14a166.363,166.363,0,0,1,15.687,46.4c2.615,14.027,3.851,29.482,3.776,47.248-.066,15.855-1.146,32.053-2.19,47.717-1.045,15.681-2.126,31.9-2.193,47.787-.075,17.835,1.167,33.36,3.8,47.458A167.464,167.464,0,0,0,50.84,468.46a170.4,170.4,0,0,0,14.268,22.932,199.284,199.284,0,0,0,19.506,22.569l.792-.79a197.915,197.915,0,0,1-19.4-22.444A169.406,169.406,0,0,1,51.835,467.95a166.386,166.386,0,0,1-15.688-46.4c-2.615-14.026-3.85-29.482-3.776-47.248.066-15.856,1.146-32.053,2.19-47.717,1.045-15.681,2.126-31.9,2.193-47.787.075-17.837-1.167-33.361-3.8-47.458a167.481,167.481,0,0,0-15.793-46.71A170.416,170.416,0,0,0,2.9,161.7q-1.413-1.918-2.9-3.825V159.7q1.016,1.326,2,2.658A169.321,169.321,0,0,1,16.172,185.14" transform="translate(0 -122.534)" fill="#fafafa"/>
      <path id="Path_35" data-name="Path 35" d="M33.174,45.617a166.377,166.377,0,0,1,15.687,46.4c2.615,14.027,3.851,29.482,3.776,47.248-.066,15.856-1.146,32.053-2.19,47.717-1.045,15.681-2.126,31.9-2.193,47.787-.075,17.838,1.167,33.36,3.8,47.458a167.5,167.5,0,0,0,15.793,46.71,170.379,170.379,0,0,0,14.268,22.93,199.113,199.113,0,0,0,19.506,22.569l.792-.79a198.09,198.09,0,0,1-19.4-22.441,169.383,169.383,0,0,1-14.174-22.78,166.392,166.392,0,0,1-15.687-46.4C50.535,268,49.3,252.542,49.374,234.775c.066-15.856,1.146-32.053,2.19-47.717,1.045-15.681,2.126-31.9,2.193-47.787.075-17.837-1.167-33.361-3.8-47.458A167.48,167.48,0,0,0,34.169,45.1,170.424,170.424,0,0,0,19.9,22.174,198.834,198.834,0,0,0,.788,0H0V.8A197.683,197.683,0,0,1,19,22.838,169.308,169.308,0,0,1,33.174,45.617" transform="translate(0 -0.013)" fill="#fafafa"/>
      <path id="Path_36" data-name="Path 36" d="M159.4,28.615a166.37,166.37,0,0,1,15.688,46.4c2.615,14.027,3.85,29.482,3.776,47.248-.066,15.855-1.146,32.053-2.19,47.717-1.045,15.681-2.126,31.9-2.193,47.786-.075,17.838,1.167,33.36,3.8,47.458a167.479,167.479,0,0,0,15.793,46.71,170.4,170.4,0,0,0,14.268,22.93,199.107,199.107,0,0,0,19.506,22.571l.792-.793a198.062,198.062,0,0,1-19.4-22.441,169.382,169.382,0,0,1-14.174-22.78,166.361,166.361,0,0,1-15.688-46.4c-2.615-14.027-3.85-29.482-3.776-47.247.066-15.855,1.146-32.053,2.19-47.717,1.045-15.681,2.126-31.9,2.193-47.787.075-17.837-1.167-33.361-3.8-47.458A167.476,167.476,0,0,0,160.4,28.1a170.427,170.427,0,0,0-14.268-22.93q-1.913-2.6-3.958-5.172h-1.43q2.325,2.9,4.487,5.836A169.365,169.365,0,0,1,159.4,28.615" transform="translate(-109.228 -0.013)" fill="#fafafa"/>
      <path id="Path_37" data-name="Path 37" d="M292.82,58.016c2.615,14.027,3.851,29.482,3.776,47.248-.066,15.855-1.146,32.053-2.19,47.717-1.045,15.681-2.126,31.9-2.193,47.786-.075,17.837,1.167,33.359,3.8,47.458a167.452,167.452,0,0,0,15.793,46.71,170.376,170.376,0,0,0,14.268,22.93,199.106,199.106,0,0,0,19.506,22.571l.792-.793a198.088,198.088,0,0,1-19.4-22.441,169.4,169.4,0,0,1-14.174-22.78,166.372,166.372,0,0,1-15.687-46.4c-2.615-14.029-3.85-29.483-3.776-47.249.066-15.855,1.146-32.053,2.19-47.717,1.045-15.681,2.126-31.9,2.193-47.787.075-17.837-1.167-33.361-3.8-47.458A167.484,167.484,0,0,0,278.128,11.1q-2.89-5.61-6.28-11.1h-1.315q3.565,5.726,6.6,11.613a166.37,166.37,0,0,1,15.687,46.4" transform="translate(-209.955 -0.013)" fill="#fafafa"/>
      <path id="Path_38" data-name="Path 38" d="M404.589,88.262c-.066,15.855-1.146,32.053-2.19,47.717-1.045,15.681-2.126,31.9-2.193,47.786-.075,17.837,1.167,33.361,3.8,47.457a167.456,167.456,0,0,0,15.793,46.71,170.547,170.547,0,0,0,14.268,22.932,199.307,199.307,0,0,0,19.506,22.569l.792-.793a198.084,198.084,0,0,1-19.4-22.441,169.241,169.241,0,0,1-14.174-22.78,166.353,166.353,0,0,1-15.687-46.4c-2.615-14.028-3.851-29.483-3.776-47.249.066-15.855,1.146-32.053,2.19-47.717,1.045-15.681,2.126-31.9,2.193-47.787.075-17.837-1.167-33.361-3.8-47.458A169,169,0,0,0,389.012,0h-1.234a167.751,167.751,0,0,1,13.035,41.013c2.615,14.027,3.851,29.482,3.776,47.248" transform="translate(-300.945 -0.013)" fill="#fafafa"/>
      <path id="Path_39" data-name="Path 39" d="M504.189,71.26c-.066,15.855-1.146,32.053-2.19,47.716-1.045,15.681-2.126,31.9-2.193,47.787-.075,17.837,1.167,33.36,3.8,47.458a167.506,167.506,0,0,0,15.793,46.711,170.532,170.532,0,0,0,14.268,22.93,199.291,199.291,0,0,0,19.506,22.569l.792-.79a197.936,197.936,0,0,1-19.4-22.444,169.4,169.4,0,0,1-14.174-22.777,166.386,166.386,0,0,1-15.688-46.4c-2.615-14.027-3.85-29.482-3.776-47.248.066-15.855,1.146-32.053,2.19-47.717,1.046-15.681,2.126-31.9,2.193-47.786.075-17.837-1.167-33.361-3.8-47.458A176.735,176.735,0,0,0,495.388,0h-1.18a175.436,175.436,0,0,1,6.205,24.011c2.615,14.027,3.85,29.482,3.776,47.248" transform="translate(-383.544 -0.013)" fill="#fafafa"/>
      <path id="Path_40" data-name="Path 40" d="M596.613,54.258c-.066,15.856-1.146,32.053-2.19,47.717-1.046,15.681-2.126,31.9-2.193,47.786-.075,17.837,1.167,33.361,3.795,47.458a167.5,167.5,0,0,0,15.793,46.711,170.375,170.375,0,0,0,14.268,22.93,199.108,199.108,0,0,0,19.506,22.569l.792-.79a197.912,197.912,0,0,1-19.4-22.444,169.236,169.236,0,0,1-14.174-22.777,166.391,166.391,0,0,1-15.688-46.4c-2.615-14.027-3.85-29.482-3.776-47.248.066-15.855,1.146-32.053,2.191-47.717,1.045-15.681,2.126-31.9,2.193-47.787.075-17.837-1.167-33.361-3.8-47.458q-.643-3.447-1.4-6.8h-1.148q.782,3.459,1.446,7.009c2.615,14.027,3.851,29.482,3.776,47.248" transform="translate(-458.966 -0.013)" fill="#fafafa"/>
      <path id="Path_41" data-name="Path 41" d="M751.364,20.253c-.066,15.855-1.146,32.053-2.19,47.717-1.045,15.681-2.126,31.9-2.193,47.786-.075,17.837,1.167,33.361,3.8,47.458a167.475,167.475,0,0,0,15.793,46.71,170.407,170.407,0,0,0,14.268,22.929,199.106,199.106,0,0,0,19.506,22.571l.792-.793a198.115,198.115,0,0,1-19.4-22.441,169.36,169.36,0,0,1-14.174-22.779,166.369,166.369,0,0,1-15.688-46.4c-2.615-14.027-3.85-29.482-3.776-47.248.066-15.855,1.146-32.053,2.19-47.717,1.045-15.681,2.126-31.9,2.193-47.787.03-7.1-.15-13.835-.542-20.259H750.82c.393,6.42.574,13.152.544,20.254" transform="translate(-579.713 -0.013)" fill="#fafafa"/>
      <path id="Path_42" data-name="Path 42" d="M1877.073,34.4l.793-.792a197.9,197.9,0,0,1-19.4-22.442Q1854.442,5.7,1850.894,0h-1.314q3.718,6.03,7.987,11.83a198.946,198.946,0,0,0,19.506,22.57" transform="translate(-1435.418 -0.013)" fill="#fafafa"/>
      <path id="Path_43" data-name="Path 43" d="M827.292,3.252c-.066,15.855-1.146,32.053-2.19,47.717-1.046,15.681-2.126,31.9-2.193,47.787-.075,17.837,1.167,33.361,3.8,47.458a167.467,167.467,0,0,0,15.793,46.71,170.425,170.425,0,0,0,14.268,22.93,199.365,199.365,0,0,0,19.5,22.57l.793-.793a198.122,198.122,0,0,1-19.4-22.441,169.35,169.35,0,0,1-14.174-22.779,166.372,166.372,0,0,1-15.687-46.4c-2.615-14.027-3.85-29.482-3.776-47.248.066-15.855,1.146-32.053,2.19-47.717,1.046-15.681,2.126-31.9,2.193-47.786q.007-1.641,0-3.256h-1.12q.008,1.613,0,3.252" transform="translate(-638.639 -0.013)" fill="#fafafa"/>
      <path id="Path_44" data-name="Path 44" d="M898.837,81.753c-.075,17.837,1.167,33.361,3.795,47.458a167.472,167.472,0,0,0,15.793,46.71,170.545,170.545,0,0,0,14.267,22.93,199.165,199.165,0,0,0,19.506,22.57l.793-.792a197.889,197.889,0,0,1-19.4-22.442,169.179,169.179,0,0,1-14.174-22.779,166.376,166.376,0,0,1-15.687-46.4c-2.615-14.027-3.851-29.482-3.776-47.248.066-15.855,1.146-32.053,2.19-47.717.745-11.18,1.507-22.63,1.908-34.041h-1.12c-.4,11.382-1.161,22.81-1.9,33.967-1.045,15.681-2.126,31.9-2.193,47.786" transform="translate(-697.565 -0.013)" fill="#fafafa"/>
      <path id="Path_45" data-name="Path 45" d="M974.765,64.751c-.075,17.837,1.167,33.361,3.8,47.458a167.493,167.493,0,0,0,15.792,46.71,170.626,170.626,0,0,0,14.268,22.931,198.968,198.968,0,0,0,19.506,22.57l.793-.792a197.857,197.857,0,0,1-19.4-22.442,169.139,169.139,0,0,1-14.174-22.779A166.323,166.323,0,0,1,979.661,112c-2.615-14.027-3.85-29.482-3.776-47.248.066-15.855,1.146-32.053,2.19-47.717.375-5.624.754-11.317,1.089-17.039h-1.122c-.335,5.7-.712,11.365-1.085,16.965-1.045,15.681-2.126,31.9-2.193,47.787" transform="translate(-756.491 -0.013)" fill="#fafafa"/>
      <path id="Path_46" data-name="Path 46" d="M1054.485,95.207a167.528,167.528,0,0,0,15.793,46.71,170.4,170.4,0,0,0,14.268,22.93,198.946,198.946,0,0,0,19.506,22.57l.791-.792a198.085,198.085,0,0,1-19.4-22.442,169.35,169.35,0,0,1-14.172-22.779A166.313,166.313,0,0,1,1055.586,95c-2.615-14.027-3.851-29.482-3.777-47.248C1051.876,31.9,1052.955,15.7,1054,.037A.21.21,0,0,1,1054,0h-1.122c-1.046,15.669-2.125,31.871-2.192,47.749-.074,17.837,1.167,33.361,3.8,47.458" transform="translate(-815.414 -0.013)" fill="#fafafa"/>
      <path id="Path_47" data-name="Path 47" d="M1130.415,78.205a167.523,167.523,0,0,0,15.793,46.71,170.2,170.2,0,0,0,14.268,22.931,198.985,198.985,0,0,0,19.506,22.57l.791-.792a198.1,198.1,0,0,1-19.4-22.442A169.382,169.382,0,0,1,1147.2,124.4,166.382,166.382,0,0,1,1131.516,78c-2.615-14.027-3.852-29.482-3.778-47.248.043-10.187.5-20.515,1.106-30.752h-1.122c-.6,10.232-1.062,20.556-1.1,30.747-.074,17.837,1.167,33.361,3.8,47.458" transform="translate(-874.342 -0.013)" fill="#fafafa"/>
      <path id="Path_48" data-name="Path 48" d="M1206.345,61.2a167.38,167.38,0,0,0,15.793,46.71,170.4,170.4,0,0,0,14.266,22.93,199.4,199.4,0,0,0,19.506,22.57l.793-.792a198.108,198.108,0,0,1-19.4-22.442,169.367,169.367,0,0,1-14.174-22.779A166.383,166.383,0,0,1,1207.444,61c-2.615-14.027-3.849-29.482-3.775-47.248q.03-6.843.286-13.75h-1.122c-.161,4.595-.264,9.183-.284,13.745-.074,17.837,1.167,33.361,3.8,47.458" transform="translate(-933.27 -0.013)" fill="#fafafa"/>
      <path id="Path_49" data-name="Path 49" d="M1298.076,90.911a170.625,170.625,0,0,0,14.268,22.93,199.169,199.169,0,0,0,19.506,22.57l.793-.792a197.878,197.878,0,0,1-19.4-22.442A169.162,169.162,0,0,1,1299.073,90.4,166.389,166.389,0,0,1,1283.385,44a246.053,246.053,0,0,1-3.775-44h-1.12a247.076,247.076,0,0,0,3.8,44.2,167.456,167.456,0,0,0,15.791,46.71" transform="translate(-992.208 -0.013)" fill="#fafafa"/>
      <path id="Path_50" data-name="Path 50" d="M1375.885,73.909a170.624,170.624,0,0,0,14.268,22.93,198.947,198.947,0,0,0,19.506,22.57l.791-.792a198.047,198.047,0,0,1-19.394-22.442A169.147,169.147,0,0,1,1376.881,73.4a166.315,166.315,0,0,1-15.688-46.4A220.632,220.632,0,0,1,1357.96,0h-1.12a221.689,221.689,0,0,0,3.251,27.2,167.531,167.531,0,0,0,15.793,46.71" transform="translate(-1053.014 -0.013)" fill="#fafafa"/>
      <path id="Path_51" data-name="Path 51" d="M1457.457,56.907a170.417,170.417,0,0,0,14.268,22.931,198.974,198.974,0,0,0,19.506,22.57l.79-.792a198.064,198.064,0,0,1-19.4-22.442,169.375,169.375,0,0,1-14.172-22.779,166.323,166.323,0,0,1-15.688-46.4q-.91-4.875-1.6-9.992h-1.129q.7,5.228,1.624,10.2a167.526,167.526,0,0,0,15.793,46.71" transform="translate(-1117.583 -0.013)" fill="#fafafa"/>
      <path id="Path_52" data-name="Path 52" d="M1558.132,62.836a198.964,198.964,0,0,0,19.506,22.57l.79-.792a198.1,198.1,0,0,1-19.4-22.442,169.37,169.37,0,0,1-14.174-22.779A164.072,164.072,0,0,1,1530.616,0h-1.146a165.117,165.117,0,0,0,14.394,39.905,170.21,170.21,0,0,0,14.268,22.931" transform="translate(-1186.988 -0.013)" fill="#fafafa"/>
      <path id="Path_53" data-name="Path 53" d="M1650.435,45.834a199.4,199.4,0,0,0,19.506,22.57l.793-.792a198.123,198.123,0,0,1-19.4-22.442,169.391,169.391,0,0,1-14.174-22.779A161.223,161.223,0,0,1,1627.682,0H1626.5a162.623,162.623,0,0,0,9.669,22.9,170.4,170.4,0,0,0,14.266,22.93" transform="translate(-1262.291 -0.013)" fill="#fafafa"/>
      <path id="Path_54" data-name="Path 54" d="M1749.849,28.832a199.2,199.2,0,0,0,19.506,22.57l.793-.792a197.889,197.889,0,0,1-19.4-22.442,169.143,169.143,0,0,1-14.174-22.779Q1735.2,2.713,1733.926,0h-1.236q1.384,2.974,2.891,5.9a170.639,170.639,0,0,0,14.268,22.931" transform="translate(-1344.703 -0.013)" fill="#fafafa"/>
      <path id="Path_55" data-name="Path 55" d="M1995.19,16.606A203.507,203.507,0,0,1,1980.281,0h-1.431A203.894,203.894,0,0,0,1994.4,17.4Z" transform="translate(-1535.742 -0.013)" fill="#fafafa"/>
      <path id="Path_56" data-name="Path 56" d="M2123.248,0h-.788c.132.132.262.264.394.4Z" transform="translate(-1647.194 -0.013)" fill="#fafafa"/>
    </g>
  </g>
  <g id="Group_54" data-name="Group 54">
    <g id="Group_53" data-name="Group 53" clip-path="url(#clip-path-2)">
      <path id="Path_57" data-name="Path 57" d="M963.522,1352.749c.074-17.838-1.167-33.362-3.8-47.458a167.509,167.509,0,0,0-15.793-46.71,170.166,170.166,0,0,0-14.268-22.932,199.226,199.226,0,0,0-19.505-22.569l-.792.793a198.07,198.07,0,0,1,19.4,22.441,169.5,169.5,0,0,1,14.175,22.78,166.358,166.358,0,0,1,15.686,46.4c2.615,14.029,3.851,29.484,3.778,47.248-.067,15.856-1.147,32.054-2.19,47.718-.376,5.625-.755,11.317-1.091,17.038h1.122c.334-5.694.712-11.364,1.084-16.964,1.046-15.681,2.127-31.9,2.194-47.785" transform="translate(-705.741 -941.445)" fill="#fafafa"/>
      <path id="Path_58" data-name="Path 58" d="M0,2124.614H.788c-.131-.13-.261-.264-.393-.394Z" transform="translate(0 -1648.56)" fill="#fafafa"/>
      <path id="Path_59" data-name="Path 59" d="M74.952,2048.29l-.792.791a203.6,203.6,0,0,1,14.91,16.606H90.5A203.773,203.773,0,0,0,74.952,2048.29Z" transform="translate(-57.554 -1589.633)" fill="#fafafa"/>
      <path id="Path_60" data-name="Path 60" d="M150.88,1972.36l-.792.793a198.091,198.091,0,0,1,19.4,22.441q4.025,5.465,7.574,11.165h1.315c-2.48-4.019-5.148-7.974-7.988-11.83a199.313,199.313,0,0,0-19.506-22.569" transform="translate(-116.48 -1530.705)" fill="#fafafa"/>
      <path id="Path_61" data-name="Path 61" d="M246.313,1919a199.1,199.1,0,0,0-19.506-22.571l-.792.793a198.089,198.089,0,0,1,19.4,22.441,169.4,169.4,0,0,1,14.174,22.78q1.379,2.674,2.652,5.388h1.234q-1.384-2.973-2.891-5.9A170.379,170.379,0,0,0,246.313,1919" transform="translate(-175.406 -1471.778)" fill="#fafafa"/>
      <path id="Path_62" data-name="Path 62" d="M322.241,1843.071a199.109,199.109,0,0,0-19.506-22.571l-.792.793a198.1,198.1,0,0,1,19.4,22.441,169.383,169.383,0,0,1,14.174,22.78A161.335,161.335,0,0,1,345,1888.9h1.18a162.454,162.454,0,0,0-9.667-22.9,170.381,170.381,0,0,0-14.268-22.93" transform="translate(-234.332 -1412.85)" fill="#fafafa"/>
      <path id="Path_63" data-name="Path 63" d="M398.169,1767.149a198.9,198.9,0,0,0-19.506-22.569l-.792.79a198.092,198.092,0,0,1,19.4,22.441,169.376,169.376,0,0,1,14.174,22.78,164.1,164.1,0,0,1,14.242,39.392h1.148a165.262,165.262,0,0,0-14.394-39.905,170.386,170.386,0,0,0-14.268-22.93" transform="translate(-293.258 -1353.93)" fill="#fafafa"/>
      <path id="Path_64" data-name="Path 64" d="M488.365,1714.149a170.509,170.509,0,0,0-14.268-22.93,199.3,199.3,0,0,0-19.506-22.569l-.792.79a197.91,197.91,0,0,1,19.4,22.444,169.238,169.238,0,0,1,14.174,22.777,166.385,166.385,0,0,1,15.688,46.4q.909,4.874,1.6,9.991h1.13q-.7-5.226-1.625-10.2a167.5,167.5,0,0,0-15.793-46.71" transform="translate(-352.184 -1295.003)" fill="#fafafa"/>
      <path id="Path_65" data-name="Path 65" d="M564.293,1638.221a170.432,170.432,0,0,0-14.268-22.932,199.294,199.294,0,0,0-19.506-22.569l-.792.793a198.081,198.081,0,0,1,19.4,22.441,169.231,169.231,0,0,1,14.174,22.78,166.352,166.352,0,0,1,15.688,46.4,220.6,220.6,0,0,1,3.232,26.994h1.122a221.776,221.776,0,0,0-3.253-27.2,167.458,167.458,0,0,0-15.793-46.71" transform="translate(-411.11 -1236.075)" fill="#fafafa"/>
      <path id="Path_66" data-name="Path 66" d="M640.221,1562.291a170.4,170.4,0,0,0-14.268-22.93,199.172,199.172,0,0,0-19.506-22.571l-.792.793a198.075,198.075,0,0,1,19.4,22.441,169.375,169.375,0,0,1,14.174,22.78,166.371,166.371,0,0,1,15.688,46.4,245.918,245.918,0,0,1,3.775,44h1.12a246.987,246.987,0,0,0-3.794-44.2,167.443,167.443,0,0,0-15.793-46.71" transform="translate(-470.036 -1177.147)" fill="#fafafa"/>
      <path id="Path_67" data-name="Path 67" d="M731.942,1533.071a167.476,167.476,0,0,0-15.793-46.71,170.377,170.377,0,0,0-14.268-22.93,199.131,199.131,0,0,0-19.506-22.571l-.792.793a198.1,198.1,0,0,1,19.4,22.442,169.4,169.4,0,0,1,14.174,22.78,166.357,166.357,0,0,1,15.688,46.4c2.615,14.026,3.85,29.482,3.776,47.248-.019,4.561-.124,9.152-.286,13.749h1.12c.161-4.595.266-9.183.285-13.744.075-17.838-1.167-33.36-3.8-47.458" transform="translate(-528.962 -1118.22)" fill="#fafafa"/>
      <path id="Path_68" data-name="Path 68" d="M807.87,1457.149a167.5,167.5,0,0,0-15.793-46.71,170.373,170.373,0,0,0-14.268-22.93A198.913,198.913,0,0,0,758.3,1364.94l-.792.791a197.918,197.918,0,0,1,19.4,22.444,169.216,169.216,0,0,1,14.174,22.777,166.385,166.385,0,0,1,15.688,46.4c2.615,14.026,3.85,29.482,3.776,47.248-.043,10.186-.5,20.516-1.106,30.751h1.121c.6-10.231,1.061-20.556,1.1-30.747.075-17.838-1.167-33.36-3.8-47.458" transform="translate(-587.888 -1059.3)" fill="#fafafa"/>
      <path id="Path_69" data-name="Path 69" d="M883.8,1381.219a167.423,167.423,0,0,0-15.792-46.71,170.522,170.522,0,0,0-14.268-22.93,199.325,199.325,0,0,0-19.506-22.569l-.792.79a197.943,197.943,0,0,1,19.4,22.444,169.215,169.215,0,0,1,14.174,22.777,166.453,166.453,0,0,1,15.688,46.4c2.613,14.027,3.849,29.482,3.775,47.248-.067,15.856-1.146,32.052-2.19,47.718a.2.2,0,0,0,0,.036H885.4c1.044-15.668,2.123-31.871,2.19-47.749.074-17.835-1.167-33.36-3.8-47.458" transform="translate(-646.815 -1000.372)" fill="#fafafa"/>
    </g>
  </g>
  <g id="Group_56" data-name="Group 56" transform="translate(0 0.013)">
    <g id="Group_55" data-name="Group 55" clip-path="url(#clip-path)">
      <path id="Path_70" data-name="Path 70" d="M1039.45,1276.819c.074-17.838-1.169-33.362-3.8-47.458a167.51,167.51,0,0,0-15.793-46.71,170.361,170.361,0,0,0-14.268-22.93,198.941,198.941,0,0,0-19.505-22.571l-.792.793a198.081,198.081,0,0,1,19.4,22.442,169.283,169.283,0,0,1,14.172,22.78,166.3,166.3,0,0,1,15.688,46.4c2.615,14.029,3.852,29.484,3.778,47.25-.067,15.854-1.147,32.052-2.192,47.716-.746,11.18-1.5,22.63-1.908,34.041h1.122c.4-11.382,1.16-22.809,1.9-33.967,1.046-15.681,2.127-31.9,2.195-47.785" transform="translate(-764.667 -882.531)" fill="#fafafa"/>
      <path id="Path_71" data-name="Path 71" d="M1973.153,150.088l-.793.792a198.061,198.061,0,0,1,19.4,22.442,169.367,169.367,0,0,1,14.174,22.779q.42.816.828,1.636v-2.466a170.678,170.678,0,0,0-14.1-22.613,199.384,199.384,0,0,0-19.506-22.57" transform="translate(-1530.705 -116.493)" fill="#fafafa"/>
    </g>
  </g>
  <g id="Group_58" data-name="Group 58">
    <g id="Group_57" data-name="Group 57" clip-path="url(#clip-path-2)">
      <path id="Path_72" data-name="Path 72" d="M1110.991,1296.392c.065-15.856,1.146-32.052,2.19-47.716,1.046-15.681,2.127-31.9,2.192-47.787.076-17.838-1.167-33.36-3.793-47.458a167.534,167.534,0,0,0-15.793-46.71,170.594,170.594,0,0,0-14.268-22.93,199.154,199.154,0,0,0-19.506-22.571l-.793.793a197.921,197.921,0,0,1,19.4,22.441,169.205,169.205,0,0,1,14.174,22.78,166.367,166.367,0,0,1,15.688,46.4c2.615,14.026,3.852,29.481,3.775,47.247-.065,15.856-1.146,32.052-2.19,47.716-1.046,15.681-2.125,31.9-2.192,47.787q-.007,1.642,0,3.256h1.12q-.007-1.612,0-3.251" transform="translate(-823.589 -823.589)" fill="#fafafa"/>
      <path id="Path_73" data-name="Path 73" d="M1186.921,1220.467c.065-15.854,1.144-32.052,2.19-47.716,1.046-15.681,2.125-31.9,2.192-47.787.074-17.838-1.167-33.36-3.8-47.458a167.415,167.415,0,0,0-15.793-46.71,170.342,170.342,0,0,0-14.266-22.93,199.271,199.271,0,0,0-19.506-22.57l-.793.792a198.107,198.107,0,0,1,19.4,22.441,169.227,169.227,0,0,1,14.174,22.78,166.4,166.4,0,0,1,15.688,46.4c2.615,14.026,3.849,29.482,3.775,47.248-.065,15.856-1.146,32.052-2.19,47.718-1.046,15.681-2.127,31.9-2.192,47.785-.031,7.1.15,13.836.542,20.258h1.12c-.392-6.42-.573-13.151-.542-20.254" transform="translate(-882.517 -764.667)" fill="#fafafa"/>
      <path id="Path_74" data-name="Path 74" d="M1262.849,1144.54c.067-15.856,1.146-32.055,2.192-47.718,1.046-15.681,2.125-31.9,2.192-47.787.074-17.836-1.167-33.36-3.8-47.458a167.419,167.419,0,0,0-15.793-46.71,170.492,170.492,0,0,0-14.266-22.93,199.459,199.459,0,0,0-19.506-22.569l-.793.792a198.02,198.02,0,0,1,19.4,22.443,169.281,169.281,0,0,1,14.174,22.777,166.4,166.4,0,0,1,15.688,46.4c2.615,14.027,3.849,29.482,3.775,47.248-.067,15.856-1.146,32.052-2.19,47.718-1.046,15.681-2.127,31.9-2.194,47.785a272.646,272.646,0,0,0,2.172,37.261h1.129a271.267,271.267,0,0,1-2.181-37.254" transform="translate(-941.445 -705.741)" fill="#fafafa"/>
      <path id="Path_75" data-name="Path 75" d="M1338.779,1068.612c.067-15.856,1.147-32.054,2.19-47.718,1.046-15.681,2.127-31.9,2.194-47.785.074-17.838-1.167-33.362-3.8-47.458a167.5,167.5,0,0,0-15.793-46.71,170.129,170.129,0,0,0-14.268-22.931,198.95,198.95,0,0,0-19.506-22.57l-.79.792a198.131,198.131,0,0,1,19.4,22.442,169.526,169.526,0,0,1,14.174,22.78,166.352,166.352,0,0,1,15.686,46.4c2.615,14.029,3.852,29.484,3.778,47.247-.067,15.856-1.147,32.055-2.19,47.718-1.046,15.681-2.127,31.9-2.194,47.787-.074,17.835,1.167,33.36,3.8,47.458q.641,3.446,1.4,6.8H1344q-.783-3.456-1.444-7.009c-2.615-14.026-3.852-29.481-3.778-47.248" transform="translate(-1000.372 -646.815)" fill="#fafafa"/>
      <path id="Path_76" data-name="Path 76" d="M1414.709,992.683c.067-15.856,1.146-32.052,2.19-47.718s2.127-31.9,2.195-47.785c.074-17.838-1.169-33.362-3.8-47.458a167.511,167.511,0,0,0-15.793-46.71,170.4,170.4,0,0,0-14.268-22.93,198.959,198.959,0,0,0-19.506-22.57l-.791.792a198.077,198.077,0,0,1,19.4,22.442,169.344,169.344,0,0,1,14.172,22.779,166.316,166.316,0,0,1,15.688,46.4c2.615,14.029,3.852,29.484,3.778,47.25-.067,15.854-1.146,32.052-2.192,47.716-1.046,15.681-2.125,31.9-2.192,47.787-.074,17.838,1.167,33.36,3.8,47.458a176.592,176.592,0,0,0,6.126,23.805h1.18a175.328,175.328,0,0,1-6.207-24.011c-2.615-14.026-3.849-29.482-3.775-47.248" transform="translate(-1059.3 -587.888)" fill="#fafafa"/>
      <path id="Path_77" data-name="Path 77" d="M1490.631,916.756c.065-15.856,1.146-32.052,2.19-47.716,1.046-15.681,2.127-31.9,2.192-47.787.076-17.838-1.167-33.36-3.793-47.458a167.533,167.533,0,0,0-15.793-46.71,170.615,170.615,0,0,0-14.268-22.93,199.16,199.16,0,0,0-19.506-22.57l-.793.792a197.871,197.871,0,0,1,19.4,22.442A169.125,169.125,0,0,1,1474.43,727.6a166.384,166.384,0,0,1,15.688,46.4c2.615,14.026,3.852,29.482,3.775,47.248-.065,15.856-1.146,32.052-2.19,47.715-1.046,15.681-2.125,31.9-2.192,47.787-.076,17.838,1.167,33.36,3.8,47.458a168.935,168.935,0,0,0,12.9,40.808h1.236A167.661,167.661,0,0,1,1494.406,964c-2.615-14.026-3.849-29.482-3.775-47.248" transform="translate(-1118.22 -528.963)" fill="#fafafa"/>
      <path id="Path_78" data-name="Path 78" d="M1570.337,888.076c-2.615-14.029-3.852-29.484-3.775-47.25.065-15.854,1.144-32.052,2.19-47.716,1.046-15.681,2.125-31.9,2.192-47.787.074-17.838-1.167-33.36-3.8-47.458a167.369,167.369,0,0,0-15.793-46.709,170.35,170.35,0,0,0-14.266-22.93,199.418,199.418,0,0,0-19.506-22.57l-.793.792a198.088,198.088,0,0,1,19.4,22.442,169.145,169.145,0,0,1,14.174,22.779,166.381,166.381,0,0,1,15.688,46.4c2.615,14.026,3.849,29.482,3.775,47.248-.065,15.856-1.146,32.052-2.19,47.718-1.046,15.681-2.127,31.9-2.192,47.785-.076,17.838,1.167,33.362,3.793,47.458a167.505,167.505,0,0,0,15.793,46.71q2.892,5.609,6.281,11.1h1.314q-3.567-5.727-6.6-11.613a166.306,166.306,0,0,1-15.688-46.4" transform="translate(-1177.147 -470.036)" fill="#fafafa"/>
      <path id="Path_79" data-name="Path 79" d="M1661.955,858.549a166.289,166.289,0,0,1-15.688-46.4c-2.615-14.029-3.851-29.484-3.778-47.248.067-15.856,1.146-32.054,2.192-47.718,1.043-15.681,2.125-31.9,2.192-47.787.074-17.835-1.167-33.36-3.8-47.457a167.386,167.386,0,0,0-15.793-46.71,170.413,170.413,0,0,0-14.266-22.931,199.225,199.225,0,0,0-19.508-22.57l-.791.792a198.094,198.094,0,0,1,19.4,22.442,169.365,169.365,0,0,1,14.174,22.779,166.453,166.453,0,0,1,15.688,46.4c2.615,14.026,3.849,29.482,3.775,47.247-.067,15.856-1.146,32.055-2.19,47.718-1.046,15.681-2.127,31.9-2.194,47.785-.074,17.838,1.167,33.362,3.8,47.458a167.505,167.505,0,0,0,15.793,46.71,170.381,170.381,0,0,0,14.268,22.932q1.911,2.6,3.959,5.17h1.428q-2.324-2.9-4.487-5.836a169.276,169.276,0,0,1-14.172-22.78" transform="translate(-1236.075 -411.11)" fill="#fafafa"/>
      <path id="Path_80" data-name="Path 80" d="M1771.056,827.444a197.584,197.584,0,0,1-19-22.043,169.423,169.423,0,0,1-14.174-22.777,166.387,166.387,0,0,1-15.686-46.4c-2.615-14.026-3.852-29.482-3.778-47.247.067-15.856,1.146-32.055,2.19-47.718,1.046-15.681,2.127-31.9,2.194-47.785.074-17.838-1.167-33.362-3.8-47.459a167.53,167.53,0,0,0-15.793-46.71,170.151,170.151,0,0,0-14.268-22.93,198.933,198.933,0,0,0-19.506-22.57l-.79.792a198.107,198.107,0,0,1,19.4,22.442,169.616,169.616,0,0,1,14.174,22.779,166.386,166.386,0,0,1,15.686,46.4c2.615,14.027,3.852,29.482,3.778,47.247-.067,15.856-1.146,32.054-2.19,47.718-1.046,15.681-2.127,31.9-2.194,47.787-.074,17.835,1.167,33.36,3.8,47.458a167.555,167.555,0,0,0,15.793,46.71,170.249,170.249,0,0,0,14.268,22.93,198.819,198.819,0,0,0,19.112,22.173h.788Z" transform="translate(-1295.003 -352.185)" fill="#fafafa"/>
      <path id="Path_81" data-name="Path 81" d="M1813.812,706.694a166.4,166.4,0,0,1-15.688-46.4c-2.615-14.027-3.849-29.482-3.775-47.248.067-15.856,1.146-32.052,2.19-47.718s2.127-31.9,2.194-47.785c.074-17.838-1.169-33.361-3.8-47.458a167.527,167.527,0,0,0-15.793-46.71,170.4,170.4,0,0,0-14.268-22.93,198.986,198.986,0,0,0-19.506-22.57l-.79.792a198.1,198.1,0,0,1,19.4,22.442,169.363,169.363,0,0,1,14.172,22.779,166.311,166.311,0,0,1,15.688,46.4c2.615,14.027,3.851,29.482,3.778,47.249-.067,15.854-1.146,32.052-2.192,47.716-1.046,15.681-2.125,31.9-2.192,47.787-.074,17.838,1.167,33.36,3.8,47.458a167.406,167.406,0,0,0,15.793,46.71,170.329,170.329,0,0,0,14.266,22.93q1.414,1.918,2.9,3.825v-1.829q-1.014-1.327-2-2.658a169.44,169.44,0,0,1-14.174-22.78" transform="translate(-1353.93 -293.258)" fill="#fafafa"/>
      <path id="Path_82" data-name="Path 82" d="M1870.271,537.116c.065-15.856,1.146-32.052,2.19-47.716,1.046-15.681,2.127-31.9,2.192-47.787.076-17.837-1.167-33.36-3.793-47.458a167.526,167.526,0,0,0-15.793-46.71,170.621,170.621,0,0,0-14.268-22.93,199.177,199.177,0,0,0-19.506-22.57l-.793.792a197.888,197.888,0,0,1,19.4,22.442,169.143,169.143,0,0,1,14.174,22.779,166.375,166.375,0,0,1,15.688,46.4c2.615,14.027,3.849,29.482,3.775,47.248-.065,15.856-1.146,32.053-2.19,47.716-1.046,15.681-2.127,31.9-2.192,47.787-.074,17.838,1.167,33.36,3.8,47.458a167.447,167.447,0,0,0,15.791,46.71c.056.105.112.211.166.318v-2.465a166.815,166.815,0,0,1-14.857-44.769c-2.615-14.026-3.849-29.482-3.775-47.248" transform="translate(-1412.85 -234.333)" fill="#fafafa"/>
      <path id="Path_83" data-name="Path 83" d="M1930.995,271.516a170.359,170.359,0,0,0-14.266-22.93,199.425,199.425,0,0,0-19.506-22.57l-.793.792a198.134,198.134,0,0,1,19.4,22.442A169.133,169.133,0,0,1,1930,272.029a166.383,166.383,0,0,1,15.688,46.4c.865,4.641,1.579,9.441,2.143,14.427v-8.48q-.477-3.122-1.043-6.152a167.386,167.386,0,0,0-15.793-46.71" transform="translate(-1471.778 -175.406)" fill="#fafafa"/>
      <path id="Path_84" data-name="Path 84" d="M2113.689,1081.264a264.1,264.1,0,0,0,2.75,41.307v-8.478a280.237,280.237,0,0,1-1.63-32.825c.053-13.014.791-26.259,1.63-39.251V1025.01q-.272,4.252-.557,8.469c-1.046,15.681-2.127,31.9-2.192,47.785" transform="translate(-1640.385 -795.488)" fill="#fafafa"/>
      <path id="Path_85" data-name="Path 85" d="M2048.29,74.952a200.229,200.229,0,0,1,17.4,19.784V92.9a202.347,202.347,0,0,0-16.606-18.745Z" transform="translate(-1589.633 -57.554)" fill="#fafafa"/>
      <path id="Path_86" data-name="Path 86" d="M2124.614.795V0l-.394.4c.132.133.262.266.394.4" transform="translate(-1648.56 0.001)" fill="#fafafa"/>
    </g>
  </g>
</svg>
