<svg xmlns="http://www.w3.org/2000/svg" width="16" height="16" viewBox="0 0 16 16">
  <g id="Clear_Event_icon" data-name="Clear Event icon" transform="translate(-25 -86)">
    <g id="Rectangle_19" data-name="Rectangle 19" transform="translate(25 86)" fill="#fff" stroke="#707070" stroke-width="1" opacity="0">
      <rect width="16" height="16" stroke="none"/>
      <rect x="0.5" y="0.5" width="15" height="15" fill="none"/>
    </g>
    <path id="Union_13" data-name="Union 13" d="M-17643.594,16706.25h-4.148c-2.268,0-2.277,0-2.318-.01a.183.183,0,0,0-.049-.008,1.132,1.132,0,0,1-.8-.664,1.151,1.151,0,0,1,.094-1.037s.008-.018.021-.035a3.709,3.709,0,0,0,.563-2.141v-1.437a1.861,1.861,0,0,1-.244-.205,1.8,1.8,0,0,1-.527-1.281,1.817,1.817,0,0,1,1.809-1.807h2.027c-.1-.828-.242-2.037-.266-2.211l0-.021c0-.021,0-.049,0-.076a2.322,2.322,0,0,1,2.32-2.316,2.321,2.321,0,0,1,2.316,2.316.461.461,0,0,1,0,.076l-.266,2.242,2.029-.006a1.811,1.811,0,0,1,1.285.527,1.809,1.809,0,0,1,.527,1.281,1.809,1.809,0,0,1-.775,1.482v1.436a3.709,3.709,0,0,0,.563,2.141.141.141,0,0,0,.021.035,1.139,1.139,0,0,1,.094,1.037,1.135,1.135,0,0,1-.8.664c-.012,0-.021,0-.035,0-.057.014-.057.014-3.375.014Zm-.043-2.379a.621.621,0,0,1,.559.682,2.27,2.27,0,0,0,0,.445c1.094,0,2.018,0,2.484,0a4.988,4.988,0,0,1-.656-2.68v-1.072h-7.725v1.076a4.969,4.969,0,0,1-.652,2.676h1.563a3.688,3.688,0,0,0,.432-1.275.62.62,0,0,1,.664-.576.637.637,0,0,1,.43.213.611.611,0,0,1,.15.457,4.237,4.237,0,0,1-.295,1.184h2.352a3.471,3.471,0,0,1,.012-.568.62.62,0,0,1,.621-.562C-17643.682,16703.867-17643.66,16703.869-17643.637,16703.871Zm-6.113-4.439a.551.551,0,0,0,.164.4.559.559,0,0,0,.395.164h8.15a.561.561,0,0,0,.563-.559.559.559,0,0,0-.164-.395.551.551,0,0,0-.395-.164l-2.732,0a.631.631,0,0,1-.471-.207.651.651,0,0,1-.154-.492l.346-2.9a1.077,1.077,0,0,0-1.068-1.037,1.082,1.082,0,0,0-1.072,1.037c.055.424.3,2.449.352,2.893a.619.619,0,0,1-.156.486.628.628,0,0,1-.465.213h-2.732A.557.557,0,0,0-17649.75,16699.432ZM-17643.77,16698.76Z" transform="translate(17678.188 -16605.625)" fill="#282941"/>
  </g>
</svg>
