<svg xmlns="http://www.w3.org/2000/svg" width="13.797" height="13.796" viewBox="0 0 13.797 13.796">
  <g id="Stop_Circle" data-name="Stop Circle" transform="translate(-2.375 -2.375)">
    <path id="Path_3668" data-name="Path 3668" d="M9.273,2.375a6.9,6.9,0,1,1-6.9,6.9A6.906,6.906,0,0,1,9.273,2.375Zm0,12.665A5.767,5.767,0,1,0,3.506,9.273,5.774,5.774,0,0,0,9.273,15.04Z" transform="translate(0 0)" fill="#28293f"/>
    <path id="Path_3669" data-name="Path 3669" d="M10.233,8.648h1.8a1.558,1.558,0,0,1,1.585,1.636v1.694a1.558,1.558,0,0,1-1.585,1.636h-1.8a1.542,1.542,0,0,1-1.585-1.636V10.285A1.558,1.558,0,0,1,10.233,8.648Zm1.8,3.836c.375,0,.454-.275.454-.505V10.285c0-.231-.079-.505-.454-.505h-1.8c-.375,0-.454.275-.454.505v1.694c0,.231.079.505.454.505Z" transform="translate(-1.859 -1.859)" fill="#28293f"/>
  </g>
</svg>
