<svg xmlns="http://www.w3.org/2000/svg" width="28" height="28" viewBox="0 0 28 28">
  <g id="Group_12378" data-name="Group 12378" transform="translate(2 2)">
    <rect id="Rectangle_3658" data-name="Rectangle 3658" width="28" height="28" transform="translate(-2 -2)" fill="none"/>
    <g id="QR_scan" data-name="QR scan" transform="translate(3 3)">
      <path id="Path_3603" data-name="Path 3603" d="M21,9.219a.75.75,0,0,1-.75-.75V6.892A3.146,3.146,0,0,0,17.107,3.75H15.85a.75.75,0,0,1,0-1.5h1.257a4.648,4.648,0,0,1,4.643,4.642V8.469A.75.75,0,0,1,21,9.219Z" transform="translate(-3 -3)" fill="#282941"/>
      <path id="Path_3604" data-name="Path 3604" d="M3,9.219a.75.75,0,0,1-.75-.75V6.892A4.648,4.648,0,0,1,6.893,2.25H8.182a.75.75,0,0,1,0,1.5H6.893A3.146,3.146,0,0,0,3.75,6.892V8.469A.75.75,0,0,1,3,9.219Z" transform="translate(-3 -3)" fill="#282941"/>
      <path id="Path_3605" data-name="Path 3605" d="M8.15,21.75H6.893A4.648,4.648,0,0,1,2.25,17.108V15.531a.75.75,0,0,1,1.5,0v1.577A3.146,3.146,0,0,0,6.893,20.25H8.15a.75.75,0,0,1,0,1.5Z" transform="translate(-3 -3)" fill="#282941"/>
      <path id="Path_3606" data-name="Path 3606" d="M17.108,21.75H15.818a.75.75,0,1,1,0-1.5h1.289a3.146,3.146,0,0,0,3.143-3.142V15.531a.75.75,0,1,1,1.5,0v1.577A4.648,4.648,0,0,1,17.108,21.75Z" transform="translate(-3 -3)" fill="#282941"/>
      <path id="Path_3607" data-name="Path 3607" d="M9.354,11.027H7.641A1.674,1.674,0,0,1,5.969,9.355V7.642A1.675,1.675,0,0,1,7.641,5.969H9.354a1.675,1.675,0,0,1,1.672,1.673V9.355A1.674,1.674,0,0,1,9.354,11.027ZM7.641,7.469a.173.173,0,0,0-.172.173V9.355a.173.173,0,0,0,.172.172H9.354a.173.173,0,0,0,.172-.172V7.642a.173.173,0,0,0-.172-.173Z" transform="translate(-3 -3)" fill="#282941"/>
      <path id="Path_3608" data-name="Path 3608" d="M9.425,18.031H7.641a1.674,1.674,0,0,1-1.672-1.672V14.576A1.675,1.675,0,0,1,7.641,12.9H9.425A1.675,1.675,0,0,1,11.1,14.576v1.783A1.674,1.674,0,0,1,9.425,18.031ZM7.641,14.4a.173.173,0,0,0-.172.173v1.783a.173.173,0,0,0,.172.172H9.425a.173.173,0,0,0,.172-.172V14.576a.173.173,0,0,0-.172-.173Z" transform="translate(-3 -3)" fill="#282941"/>
      <path id="Path_3609" data-name="Path 3609" d="M14.575,5.969h1.784a1.674,1.674,0,0,1,1.672,1.672V9.425A1.674,1.674,0,0,1,16.358,11.1H14.575A1.674,1.674,0,0,1,12.9,9.425V7.641A1.674,1.674,0,0,1,14.575,5.969ZM16.358,9.6a.173.173,0,0,0,.172-.172V7.641a.173.173,0,0,0-.172-.172H14.575a.173.173,0,0,0-.172.172V9.425a.173.173,0,0,0,.172.172Z" transform="translate(-3 -3)" fill="#282941"/>
      <path id="Path_3610" data-name="Path 3610" d="M14.239,18.029h-.06a.75.75,0,1,1,0-1.5h.06a.75.75,0,1,1,0,1.5Z" transform="translate(-3 -3)" fill="#282941"/>
      <path id="Path_3611" data-name="Path 3611" d="M17.341,18.029h-.06a.75.75,0,0,1,0-1.5h.06a.75.75,0,0,1,0,1.5Z" transform="translate(-3 -3)" fill="#282941"/>
      <path id="Path_3612" data-name="Path 3612" d="M17.341,14.932h-.06a.75.75,0,0,1,0-1.5h.06a.75.75,0,0,1,0,1.5Z" transform="translate(-3 -3)" fill="#282941"/>
      <path id="Path_3613" data-name="Path 3613" d="M15.79,16.479h-.06a.75.75,0,1,1,0-1.5h.06a.75.75,0,0,1,0,1.5Z" transform="translate(-3 -3)" fill="#282941"/>
      <path id="Path_3614" data-name="Path 3614" d="M14.239,14.932h-.06a.75.75,0,0,1,0-1.5h.06a.75.75,0,0,1,0,1.5Z" transform="translate(-3 -3)" fill="#282941"/>
    </g>
  </g>
</svg>
