<svg xmlns="http://www.w3.org/2000/svg" width="18" height="18" viewBox="0 0 18 18">
  <g id="Group_12392" data-name="Group 12392" transform="translate(-44.25 -336)">
    <g id="Iconly_Light_Calendar" data-name="Iconly/Light/Calendar" transform="translate(45 337.75)">
      <g id="Calendar" transform="translate(2.25 1.25)">
        <path id="Line_200" d="M9.423.583H-.083A.667.667,0,0,1-.75-.083.667.667,0,0,1-.083-.75H9.423a.667.667,0,0,1,.667.667A.667.667,0,0,1,9.423.583Z" transform="translate(0.799 4.699)" fill="#777781"/>
        <path id="Line_201" d="M-.078.583h0A.667.667,0,0,1-.75-.083.667.667,0,0,1-.083-.75h0a.667.667,0,0,1,.667.667A.667.667,0,0,1-.078.583Z" transform="translate(7.919 6.782)" fill="#777781"/>
        <path id="Line_202" d="M-.078.583h0A.667.667,0,0,1-.75-.083.667.667,0,0,1-.083-.75h0a.667.667,0,0,1,.667.667A.667.667,0,0,1-.078.583Z" transform="translate(5.552 6.782)" fill="#777781"/>
        <path id="Line_203" d="M-.078.583h0A.667.667,0,0,1-.75-.083.667.667,0,0,1-.083-.75h0a.667.667,0,0,1,.667.667A.667.667,0,0,1-.078.583Z" transform="translate(3.181 6.782)" fill="#777781"/>
        <path id="Line_204" d="M-.078.583h0A.667.667,0,0,1-.75-.083.667.667,0,0,1-.083-.75h0a.667.667,0,0,1,.667.667A.667.667,0,0,1-.078.583Z" transform="translate(7.919 8.855)" fill="#777781"/>
        <path id="Line_205" d="M-.078.583h0A.667.667,0,0,1-.75-.083.667.667,0,0,1-.083-.75h0a.667.667,0,0,1,.667.667A.667.667,0,0,1-.078.583Z" transform="translate(5.552 8.855)" fill="#777781"/>
        <path id="Line_206" d="M-.078.583h0A.667.667,0,0,1-.75-.083.667.667,0,0,1-.083-.75h0a.667.667,0,0,1,.667.667A.667.667,0,0,1-.078.583Z" transform="translate(3.181 8.855)" fill="#777781"/>
        <path id="Line_207" d="M-.083,2.338A.667.667,0,0,1-.75,1.672V-.083A.667.667,0,0,1-.083-.75a.667.667,0,0,1,.667.667V1.672A.667.667,0,0,1-.083,2.338Z" transform="translate(7.707 0.75)" fill="#777781"/>
        <path id="Line_208" d="M-.083,2.338A.667.667,0,0,1-.75,1.672V-.083A.667.667,0,0,1-.083-.75a.667.667,0,0,1,.667.667V1.672A.667.667,0,0,1-.083,2.338Z" transform="translate(3.398 0.75)" fill="#777781"/>
        <path id="Path" d="M2.461.829H6.977A3.251,3.251,0,0,1,9.346,1.7a3.123,3.123,0,0,1,.838,2.277V8.839a2.95,2.95,0,0,1-3.211,3.148H2.461A2.969,2.969,0,0,1-.75,8.8V3.972A2.948,2.948,0,0,1,2.461.829Zm4.511,9.824A1.637,1.637,0,0,0,8.85,8.839V3.972A1.811,1.811,0,0,0,8.4,2.638a2.016,2.016,0,0,0-1.424-.476H2.461A1.635,1.635,0,0,0,.583,3.972V8.8a1.654,1.654,0,0,0,1.878,1.855Z" transform="translate(0.75 0.013)" fill="#777781"/>
      </g>
    </g>
    <rect id="Rectangle_3717" data-name="Rectangle 3717" width="18" height="18" transform="translate(44.25 336)" fill="none" opacity="0"/>
  </g>
</svg>
