<svg xmlns="http://www.w3.org/2000/svg" width="28" height="28" viewBox="0 0 28 28">
  <g id="Group_12408" data-name="Group 12408" transform="translate(-314 -10)">
    <rect id="Rectangle_3722" data-name="Rectangle 3722" width="28" height="28" transform="translate(314 10)" fill="none"/>
    <g id="Iconly_Light_Calendar" data-name="Iconly/Light/Calendar" transform="translate(319.999 15)">
      <g id="Calendar">
        <path id="Line_200" d="M14.8.506H-.122A.628.628,0,0,1-.75-.122.628.628,0,0,1-.122-.75H14.8a.628.628,0,0,1,.628.628A.628.628,0,0,1,14.8.506Z" transform="translate(0.828 6.949)" fill="#555774"/>
        <path id="Line_201" d="M-.114.506H-.122A.628.628,0,0,1-.75-.122.628.628,0,0,1-.122-.75h.008a.628.628,0,0,1,.628.628A.628.628,0,0,1-.114.506Z" transform="translate(12.004 10.219)" fill="#555774"/>
        <path id="Line_202" d="M-.114.506H-.122A.628.628,0,0,1-.75-.122.628.628,0,0,1-.122-.75h.008a.628.628,0,0,1,.628.628A.628.628,0,0,1-.114.506Z" transform="translate(8.289 10.219)" fill="#555774"/>
        <path id="Line_203" d="M-.114.506H-.122A.628.628,0,0,1-.75-.122.628.628,0,0,1-.122-.75h.008a.628.628,0,0,1,.628.628A.628.628,0,0,1-.114.506Z" transform="translate(4.566 10.219)" fill="#555774"/>
        <path id="Line_204" d="M-.114.506H-.122A.628.628,0,0,1-.75-.122.628.628,0,0,1-.122-.75h.008a.628.628,0,0,1,.628.628A.628.628,0,0,1-.114.506Z" transform="translate(12.004 13.472)" fill="#555774"/>
        <path id="Line_205" d="M-.114.506H-.122A.628.628,0,0,1-.75-.122.628.628,0,0,1-.122-.75h.008a.628.628,0,0,1,.628.628A.628.628,0,0,1-.114.506Z" transform="translate(8.289 13.472)" fill="#555774"/>
        <path id="Line_206" d="M-.114.506H-.122A.628.628,0,0,1-.75-.122.628.628,0,0,1-.122-.75h.008a.628.628,0,0,1,.628.628A.628.628,0,0,1-.114.506Z" transform="translate(4.566 13.472)" fill="#555774"/>
        <path id="Line_207" d="M-.122,3.261A.628.628,0,0,1-.75,2.633V-.122A.628.628,0,0,1-.122-.75a.628.628,0,0,1,.628.628V2.633A.628.628,0,0,1-.122,3.261Z" transform="translate(11.67 0.75)" fill="#555774"/>
        <path id="Line_208" d="M-.122,3.261A.628.628,0,0,1-.75,2.633V-.122A.628.628,0,0,1-.122-.75a.628.628,0,0,1,.628.628V2.633A.628.628,0,0,1-.122,3.261Z" transform="translate(4.907 0.75)" fill="#555774"/>
        <path id="Path" d="M3.872.829h7.089a4.7,4.7,0,0,1,3.422,1.239,4.5,4.5,0,0,1,1.193,3.278v7.638a4.483,4.483,0,0,1-1.267,3.346,4.741,4.741,0,0,1-3.356,1.177H3.872a4.7,4.7,0,0,1-3.356-1.2A4.579,4.579,0,0,1-.75,12.921V5.344A4.468,4.468,0,0,1,.52,2,4.748,4.748,0,0,1,3.872.829Zm7.081,15.422c2.171,0,3.366-1.16,3.366-3.267V5.344a3.238,3.238,0,0,0-.826-2.39,3.486,3.486,0,0,0-2.532-.87H3.872C1.7,2.085.506,3.243.506,5.344v7.576a3.02,3.02,0,0,0,3.366,3.331Z" transform="translate(0.75 0.493)" fill="#555774"/>
      </g>
    </g>
  </g>
</svg>
