<svg xmlns="http://www.w3.org/2000/svg" width="24" height="24" viewBox="0 0 24 24">
  <g id="Clear_Event_icon" data-name="Clear Event icon" transform="translate(-25 -86)">
    <g id="Rectangle_19" data-name="Rectangle 19" transform="translate(25 86)" fill="#fff" stroke="#707070" stroke-width="1" opacity="0">
      <rect width="24" height="24" stroke="none"/>
      <rect x="0.5" y="0.5" width="23" height="23" fill="none"/>
    </g>
    <g id="Broom" transform="translate(24.925 85.832)">
      <path id="Path_9" data-name="Path 9" d="M12.179,2.418A3.3,3.3,0,0,1,15.47,5.709a.751.751,0,0,1-.005.088l-.424,3.568,3.254-.005a2.526,2.526,0,1,1,0,5.052H6.07a2.528,2.528,0,0,1,0-5.055H9.323C9.165,8.039,8.9,5.828,8.893,5.8a.75.75,0,0,1-.005-.09A3.3,3.3,0,0,1,12.179,2.418Zm1.791,3.251a1.791,1.791,0,0,0-3.582,0c.053.438.445,3.668.524,4.355a.75.75,0,0,1-.745.835H6.07a1.028,1.028,0,0,0,0,2.055H18.3a1.026,1.026,0,0,0,0-2.052l-4.1.007a.75.75,0,0,1-.746-.838Z" fill="#282941"/>
      <path id="Path_10" data-name="Path 10" d="M14.553,21.918H12.179c-7.32,0-7.32,0-7.382-.01l-.06-.012A1.495,1.495,0,0,1,3.8,19.628l.031-.049a5.753,5.753,0,0,0,.873-3.32q0-.015,0-.03v-2.4a.75.75,0,0,1,1.5,0v2.389A7.185,7.185,0,0,1,5.083,20.4l-.009.014,0,0c1.46,0,12.769,0,14.22,0l0,0-.01-.015a7.289,7.289,0,0,1-1.116-4.185V13.824a.75.75,0,0,1,1.5,0v2.4q0,.015,0,.03a5.752,5.752,0,0,0,.873,3.32l.032.05a1.495,1.495,0,0,1-.943,2.268l-.043.009C19.518,21.916,19.509,21.918,14.553,21.918Z" fill="#282941"/>
      <path id="Path_11" data-name="Path 11" d="M8.267,21.919a.75.75,0,0,1-.616-1.177,5.522,5.522,0,0,0,.932-2.413.75.75,0,1,1,1.5.107A6.947,6.947,0,0,1,8.884,21.6.749.749,0,0,1,8.267,21.919Z" fill="#282941"/>
      <path id="Path_12" data-name="Path 12" d="M14.469,21.92a.75.75,0,0,1-.716-.527,4.946,4.946,0,0,1-.195-2,.75.75,0,1,1,1.493.149,3.428,3.428,0,0,0,.134,1.405.751.751,0,0,1-.716.973Z" fill="#282941"/>
    </g>
  </g>
</svg>
