<svg xmlns="http://www.w3.org/2000/svg" width="28" height="28" viewBox="0 0 28 28">
  <g id="Iconly_Light_Time-Circle" data-name="Iconly/Light/Time-Circle" transform="translate(7.557 5.625)">
    <g id="Time-Circle" transform="translate(-1.982 -0.051)">
      <path id="Stroke-1" d="M8.55.126A8.425,8.425,0,1,1,.125,8.55,8.435,8.435,0,0,1,8.55.126Zm0,15.629a7.2,7.2,0,1,0-7.2-7.2A7.212,7.212,0,0,0,8.55,15.754Z" transform="translate(-0.125 -0.126)" fill="#555774"/>
      <path id="Stroke-3" d="M12.831,12.438a.608.608,0,0,1-.312-.086l-3.185-1.9a.611.611,0,0,1-.3-.524V5.832a.611.611,0,1,1,1.221,0V9.581L13.145,11.3a.611.611,0,0,1-.313,1.135Z" transform="translate(-1.508 -0.916)" fill="#555774"/>
    </g>
    <rect id="Rectangle_3723" data-name="Rectangle 3723" width="28" height="28" transform="translate(-7.557 -5.625)" fill="none"/>
  </g>
</svg>
