<svg xmlns="http://www.w3.org/2000/svg" width="24" height="24" viewBox="0 0 24 24">
  <g id="Group_11866" data-name="Group 11866" transform="translate(-141 -386)">
    <rect id="Rectangle_1402" data-name="Rectangle 1402" width="24" height="24" transform="translate(141 386)" fill="none"/>
    <g id="Iconly_Light_Setting" data-name="Iconly/Light/Setting" transform="translate(145.499 390)">
      <g id="Setting" transform="translate(0 0)">
        <path id="Path_33946" d="M7.013.028H7.96a2.193,2.193,0,0,1,2.192,2.237.633.633,0,0,0,.088.306.685.685,0,0,0,.422.321.693.693,0,0,0,.521-.073l.008,0a2.192,2.192,0,0,1,2.99.808l.47.815a.749.749,0,0,1,.04.079,2.2,2.2,0,0,1-.835,2.91l-.006,0a.667.667,0,0,0-.247.247l0,0a.687.687,0,0,0,.251.941,2.186,2.186,0,0,1,.8,2.995l0,.008-.495.825a2.192,2.192,0,0,1-2.987.792.721.721,0,0,0-.327-.093.684.684,0,0,0-.482.2.692.692,0,0,0-.2.489s0,0,0,.007a2.2,2.2,0,0,1-2.193,2.182H7.013A2.2,2.2,0,0,1,4.82,13.841a.632.632,0,0,0-.088-.313l-.006-.01a.68.68,0,0,0-.933-.25l-.011.006A2.193,2.193,0,0,1,.8,12.431l-.473-.816a2.189,2.189,0,0,1,.8-2.986.694.694,0,0,0,0-1.2,2.2,2.2,0,0,1-.8-2.991l.009-.015.5-.822a2.192,2.192,0,0,1,2.985-.8l.01.006a.632.632,0,0,0,.312.088.7.7,0,0,0,.69-.679A2.186,2.186,0,0,1,7.013.028Zm3.822,4.384a2.186,2.186,0,0,1-1.885-1.08,2.13,2.13,0,0,1-.3-1.062q0-.015,0-.029a.694.694,0,0,0-.694-.714v0H7.013a.687.687,0,0,0-.687.69s0,.01,0,.014A2.2,2.2,0,0,1,4.134,4.393H4.126A2.133,2.133,0,0,1,3.067,4.1a.683.683,0,0,0-.34-.09.7.7,0,0,0-.6.348l-.009.015-.5.82a.7.7,0,0,0,.256.94,2.193,2.193,0,0,1,0,3.8.688.688,0,0,0-.25.938l.476.82L2.1,11.7a.694.694,0,0,0,.942.271,2.179,2.179,0,0,1,2.979.8,2.133,2.133,0,0,1,.3,1.06s0,.005,0,.008a.7.7,0,0,0,.694.694h.946a.7.7,0,0,0,.694-.688,2.2,2.2,0,0,1,.64-1.551,2.171,2.171,0,0,1,1.545-.64h.027a2.227,2.227,0,0,1,1.042.292.686.686,0,0,0,.347.094.7.7,0,0,0,.6-.345l.005-.009.494-.824a.687.687,0,0,0-.253-.938,2.186,2.186,0,0,1-.8-2.991,2.167,2.167,0,0,1,.8-.8.7.7,0,0,0,.25-.941q-.017-.03-.031-.061l-.437-.758a.7.7,0,0,0-.6-.348h0a.683.683,0,0,0-.341.091A2.187,2.187,0,0,1,10.835,4.412Z" transform="translate(-0.03 -0.028)" fill="#555774"/>
        <path id="Ellipse_737" d="M1.8-.75A2.546,2.546,0,1,1-.75,1.8,2.549,2.549,0,0,1,1.8-.75Zm0,3.7A1.152,1.152,0,1,0,.644,1.8,1.154,1.154,0,0,0,1.8,2.948Z" transform="translate(5.664 6.204)" fill="#555774"/>
      </g>
    </g>
  </g>
</svg>
