<svg xmlns="http://www.w3.org/2000/svg" width="15.999" height="15.997" viewBox="0 0 15.999 15.997">
  <g id="Iconly_Light_Image-2" data-name="Iconly/Light/Image-2" transform="translate(0.75 0.75)">
    <g id="Image-2" transform="translate(0 0)">
      <path id="Stroke-1" d="M4.6,0h6.8A4.491,4.491,0,0,1,14.66,1.268,4.918,4.918,0,0,1,16,4.8v6.4a4.912,4.912,0,0,1-1.237,3.425A4.46,4.46,0,0,1,11.392,16H4.6a4.455,4.455,0,0,1-3.364-1.374A4.913,4.913,0,0,1,0,11.2V4.8A4.91,4.91,0,0,1,1.239,1.373,4.455,4.455,0,0,1,4.6,0Zm6.793,14.5a3,3,0,0,0,2.269-.9,3.446,3.446,0,0,0,.834-2.4V4.8a3.393,3.393,0,0,0-.9-2.471A3.026,3.026,0,0,0,11.4,1.5H4.6a3,3,0,0,0-2.264.9A3.444,3.444,0,0,0,1.5,4.8v6.4a3.447,3.447,0,0,0,.834,2.4,3,3,0,0,0,2.266.9Z" transform="translate(-0.75 -0.75)" fill="#777781"/>
      <path id="Stroke-3" d="M6.461,4.189h0a2.2,2.2,0,1,1-2.2,2.2A2.2,2.2,0,0,1,6.462,4.189Zm0,2.9a.7.7,0,1,0-.7-.7A.7.7,0,0,0,6.461,7.089Z" transform="translate(-1.664 -1.648)" fill="#777781"/>
      <path id="Stroke-5" d="M1.749,16.55A.75.75,0,0,1,1.1,15.433a13.241,13.241,0,0,1,2.452-3.144c1.058-.873,2.169-.405,3.061-.03a3.8,3.8,0,0,0,1.369.4c.335,0,.9-.8,1.274-1.323.667-.939,1.422-2,2.576-2,1.772,0,3.275,1.553,4.082,2.387l.091.094a.75.75,0,0,1-1.076,1.045l-.093-.1c-.653-.675-1.868-1.93-3-1.93-.379,0-.942.793-1.353,1.371-.651.916-1.388,1.954-2.5,1.954a5.027,5.027,0,0,1-1.951-.516c-.9-.38-1.214-.452-1.525-.2a11.941,11.941,0,0,0-2.1,2.721A.75.75,0,0,1,1.749,16.55Z" transform="translate(-0.964 -2.751)" fill="#777781"/>
    </g>
  </g>
</svg>
