<svg xmlns="http://www.w3.org/2000/svg" width="18" height="18" viewBox="0 0 18 18">
  <g id="Group_12391" data-name="Group 12391" transform="translate(-91 -283)">
    <rect id="Rectangle_3716" data-name="Rectangle 3716" width="18" height="18" transform="translate(91 283)" fill="none" opacity="0"/>
    <path id="Path_3924" data-name="Path 3924" d="M5.1,0a5.059,5.059,0,0,1,5.1,4.991A6.221,6.221,0,0,1,8.862,8.767a13.238,13.238,0,0,1-3.325,3.084.718.718,0,0,1-.875,0A12.984,12.984,0,0,1,1.338,8.767,6.217,6.217,0,0,1,0,4.991,5.058,5.058,0,0,1,5.1,0Zm0,3.466a1.688,1.688,0,0,0-1.68,1.68,1.684,1.684,0,0,0,3.367,0A1.7,1.7,0,0,0,5.1,3.466Z" transform="translate(94.983 286)" fill="#777781"/>
  </g>
</svg>
