<svg xmlns="http://www.w3.org/2000/svg" width="16.725" height="20" viewBox="0 0 16.725 20">
  <g id="Iconly_Light_Lock" data-name="Iconly/Light/Lock" transform="translate(-3.5 -2)">
    <g id="Lock" transform="translate(3.5 2)">
      <path id="Stroke-1" d="M12.923,8.2a.75.75,0,0,1-.75-.75V5.3a3.811,3.811,0,0,0-7.621-.017V7.448a.75.75,0,1,1-1.5,0V5.281a5.311,5.311,0,0,1,10.621.02V7.448A.75.75,0,0,1,12.923,8.2Z"/>
      <path id="Stroke-3" d="M12.183,20H4.542A4.547,4.547,0,0,1,0,15.458V11.169A4.547,4.547,0,0,1,4.542,6.627h7.641a4.547,4.547,0,0,1,4.542,4.542v4.289A4.547,4.547,0,0,1,12.183,20ZM4.542,8.127A3.045,3.045,0,0,0,1.5,11.169v4.289A3.045,3.045,0,0,0,4.542,18.5h7.641a3.045,3.045,0,0,0,3.042-3.042V11.169a3.045,3.045,0,0,0-3.042-3.042Z"/>
      <path id="Stroke-5" d="M0,2.971a.75.75,0,0,1-.75-.75V0A.75.75,0,0,1,0-.75.75.75,0,0,1,.75,0V2.221A.75.75,0,0,1,0,2.971Z" transform="translate(8.363 12.203)"/>
    </g>
  </g>
</svg>
