<svg xmlns="http://www.w3.org/2000/svg" width="8.393" height="10" viewBox="0 0 8.393 10">
  <g id="Group_14" data-name="Group 14" transform="translate(-222.964 -276)">
    <path id="Path_13" data-name="Path 13" d="M14.245,9.39a.427.427,0,0,1-.253-.083L10.851,7a.429.429,0,1,1,.508-.691L14.5,8.616a.429.429,0,0,1-.254.774Z" transform="translate(215.581 271.475)" fill="#555772"/>
    <path id="Path_14" data-name="Path 14" d="M6.446,13.25h0a1.529,1.529,0,0,1-1.523-1.511l-.009-1.015a2.764,2.764,0,0,1,.5-1.621l0,0L9.112,3.98a1.779,1.779,0,0,1,1.434-.73,1.76,1.76,0,0,1,1.042.339l.991.722a1.774,1.774,0,0,1,.388,2.475L9.319,11.846a2.786,2.786,0,0,1-1.493,1.066l-.952.277A1.531,1.531,0,0,1,6.446,13.25ZM6.119,9.6a1.911,1.911,0,0,0-.347,1.119l.009,1.014a.666.666,0,0,0,.854.635l.952-.277A1.926,1.926,0,0,0,8.62,11.35l0,0,3.651-5.062A.916.916,0,0,0,12.074,5l-.991-.722a.908.908,0,0,0-.537-.175.918.918,0,0,0-.74.376Z" transform="translate(218.05 272.75)" fill="#555772"/>
  </g>
</svg>
