<svg id="Assitive_Icon" data-name="Assitive Icon" xmlns="http://www.w3.org/2000/svg" width="16" height="16" viewBox="0 0 16 16">
  <rect id="Background" width="16" height="16" fill="none"/>
  <path id="Shape" d="M5.333,10.667a5.333,5.333,0,1,1,5.333-5.333A5.339,5.339,0,0,1,5.333,10.667Zm0-4.706h0l1.9,1.9A.434.434,0,0,0,7.538,8a.473.473,0,0,0,.421-.293.417.417,0,0,0-.1-.47l-1.9-1.9L7.862,3.43a.417.417,0,0,0,.1-.47.472.472,0,0,0-.42-.293.435.435,0,0,0-.309.138L5.332,4.71,3.429,2.8a.434.434,0,0,0-.309-.138A.473.473,0,0,0,2.7,2.96a.417.417,0,0,0,.1.47l1.9,1.905-1.9,1.9a.418.418,0,0,0-.1.471A.472.472,0,0,0,3.12,8a.434.434,0,0,0,.308-.137l1.9-1.9Z" transform="translate(2.667 2.667)" fill="#ff3b3b"/>
</svg>
