<svg xmlns="http://www.w3.org/2000/svg" width="24" height="24" viewBox="0 0 24 24">
  <g id="Menu" transform="translate(-322 -383)">
    <g id="Rectangle_24" data-name="Rectangle 24" transform="translate(322 383)" fill="#fff" stroke="#707070" stroke-width="1" opacity="0">
      <rect width="24" height="24" stroke="none"/>
      <rect x="0.5" y="0.5" width="23" height="23" fill="none"/>
    </g>
    <g id="Menu-2" data-name="Menu" transform="translate(322.262 383.281)">
      <path id="Path_24" data-name="Path 24" d="M12,16.762a1.261,1.261,0,1,0,1.261,1.261A1.263,1.263,0,0,0,12,16.762Z" fill-rule="evenodd"/>
      <path id="Path_25" data-name="Path 25" d="M12,10.74A1.261,1.261,0,1,0,13.262,12,1.263,1.263,0,0,0,12,10.74Z" fill-rule="evenodd"/>
      <path id="Path_26" data-name="Path 26" d="M12,7.24a1.261,1.261,0,1,0-1.262-1.261A1.262,1.262,0,0,0,12,7.24Z" fill-rule="evenodd"/>
    </g>
  </g>
</svg>
