<svg id="Group_12330" data-name="Group 12330" xmlns="http://www.w3.org/2000/svg" width="22.4" height="22.4" viewBox="0 0 22.4 22.4">
  <rect id="Rectangle_3712" data-name="Rectangle 3712" width="22.4" height="22.4" transform="translate(0 0)" fill="none" opacity="0"/>
  <g id="Info_menu" data-name="Info menu" transform="translate(4 9.6)">
    <path id="Path_3919" data-name="Path 3919" d="M4.6,10a1.6,1.6,0,1,0,1.6,1.6A1.6,1.6,0,0,0,4.6,10Z" transform="translate(-3 -10)" fill="#282941" fill-rule="evenodd"/>
    <path id="Path_3920" data-name="Path 3920" d="M11.6,10a1.6,1.6,0,1,0,1.6,1.6A1.6,1.6,0,0,0,11.6,10Z" transform="translate(-4.4 -10)" fill="#282941" fill-rule="evenodd"/>
    <path id="Path_3921" data-name="Path 3921" d="M18.6,10a1.6,1.6,0,1,0,1.6,1.6A1.6,1.6,0,0,0,18.6,10Z" transform="translate(-5.8 -10)" fill="#282941" fill-rule="evenodd"/>
  </g>
</svg>
