<svg xmlns="http://www.w3.org/2000/svg" width="25.207" height="30.541" viewBox="0 0 25.207 30.541">
  <g id="user" transform="translate(-4.416 -3.594)">
    <path id="Ellipse_3" data-name="Ellipse 3" d="M8.517-.75A9.267,9.267,0,1,1-.75,8.517,9.277,9.277,0,0,1,8.517-.75Zm0,17.033A7.767,7.767,0,1,0,.75,8.517,7.775,7.775,0,0,0,8.517,16.283Z" transform="translate(8.399 4.344)" fill="#777781"/>
    <path id="Path_4" data-name="Path 4" d="M13.139,13.867H20.9a8.729,8.729,0,0,1,8.72,8.72c0,.155,0,.31,0,.466A3.66,3.66,0,0,1,28.571,25.7,3.992,3.992,0,0,1,25.7,26.859H8.342A3.991,3.991,0,0,1,5.468,25.7a3.66,3.66,0,0,1-1.052-2.643c0-.156,0-.311,0-.466A8.729,8.729,0,0,1,13.139,13.867ZM25.7,25.359a2.5,2.5,0,0,0,1.806-.717,2.142,2.142,0,0,0,.62-1.569c0-.163,0-.325,0-.486a7.228,7.228,0,0,0-7.22-7.22h-7.76a7.228,7.228,0,0,0-7.22,7.22c0,.161,0,.324,0,.486a2.143,2.143,0,0,0,.62,1.569,2.5,2.5,0,0,0,1.806.717Z" transform="translate(0 7.275)" fill="#777781"/>
    <path id="Path_5" data-name="Path 5" d="M16.032,23.738a.75.75,0,0,1-.75-.75V18.867a.75.75,0,0,1,1.5,0v4.121A.75.75,0,0,1,16.032,23.738Z" transform="translate(7.695 10.285)" fill="#777781"/>
    <path id="Path_6" data-name="Path 6" d="M8.18,23.738a.75.75,0,0,1-.75-.75V18.867a.75.75,0,0,1,1.5,0v4.121A.75.75,0,0,1,8.18,23.738Z" transform="translate(2.134 10.285)" fill="#777781"/>
  </g>
</svg>
